<?xml version="1.0" standalone="no"?>
<!DOCTYPE svg PUBLIC "-//W3C//DTD SVG 20010904//EN"
 "http://www.w3.org/TR/2001/REC-SVG-20010904/DTD/svg10.dtd">
<svg version="1.0" xmlns="http://www.w3.org/2000/svg"
 width="736.000000pt" height="414.000000pt" viewBox="0 0 736.000000 414.000000"
 preserveAspectRatio="xMidYMid meet">

<g transform="translate(0.000000,414.000000) scale(0.100000,-0.100000)"
fill="#000000" stroke="none">
<path d="M0 3880 c0 -201 3 -260 13 -260 8 0 9 -3 1 -8 -14 -9 -19 -492 -5
-492 31 0 42 101 14 132 -9 10 -11 18 -5 18 18 0 32 -35 32 -80 0 -48 -14 -80
-35 -80 -11 0 -15 -11 -15 -39 0 -30 5 -42 25 -55 22 -15 25 -24 25 -76 0 -52
-3 -61 -25 -76 -34 -22 -34 -69 0 -96 24 -18 26 -26 23 -82 -3 -52 -6 -62 -25
-71 l-23 -10 0 -992 c0 -850 2 -993 14 -993 8 0 17 6 19 13 4 9 6 9 6 -1 1 -8
-8 -16 -18 -19 -19 -5 -20 -18 -20 -309 l-1 -304 228 0 c164 0 231 3 240 12 9
9 12 9 12 0 0 -9 31 -12 110 -12 79 0 110 3 110 12 0 9 3 9 12 0 15 -15 218
-17 218 -2 0 6 7 10 15 10 8 0 15 -4 15 -10 0 -6 40 -10 101 -10 89 0 100 2
89 15 -10 12 -9 15 4 15 9 0 19 -7 22 -15 5 -12 27 -15 114 -15 60 0 111 4
114 9 10 16 45 19 72 5 29 -15 144 -19 144 -5 0 16 38 19 66 5 15 -8 56 -14
95 -14 65 0 69 1 69 23 0 12 -7 32 -15 44 -9 13 -11 24 -5 28 15 9 -1 68 -23
85 -13 11 -21 33 -25 68 -6 66 15 102 58 102 27 0 30 3 30 30 0 24 -4 30 -21
30 -23 0 -60 18 -71 34 -14 21 -9 121 8 144 18 25 12 73 -12 93 -17 14 -20
144 -4 154 6 4 10 35 9 69 -1 34 3 72 10 83 16 30 14 73 -4 79 -22 9 -19 34 4
34 26 0 32 22 15 55 -8 15 -14 51 -14 79 0 30 -6 60 -15 72 -20 26 -19 41 5
47 24 6 26 34 5 73 -8 16 -15 52 -15 81 0 28 -4 55 -10 58 -15 9 -12 35 4 35
8 0 17 13 21 30 4 16 13 30 20 30 19 0 31 -68 16 -91 -13 -22 -15 -56 -2 -63
15 -10 25 -176 12 -189 -15 -15 -14 -42 3 -56 21 -17 28 -171 9 -193 -19 -22
-9 -52 22 -66 43 -20 62 -116 30 -158 -20 -27 -18 -75 5 -102 16 -19 23 -21
39 -13 31 17 69 13 91 -9 30 -30 29 -133 -2 -154 -31 -22 -55 -20 -83 8 -22
22 -25 23 -38 7 -13 -13 -14 -43 -10 -168 6 -143 7 -154 29 -174 20 -19 24
-33 24 -79 0 -59 -18 -90 -53 -90 -22 0 -30 -16 -23 -46 l6 -24 226 0 c223 0
226 0 254 24 33 27 75 25 91 -5 8 -15 21 -19 63 -19 49 0 54 2 60 25 9 35 48
52 82 36 23 -10 28 -9 46 14 35 45 84 30 113 -34 l18 -41 813 0 813 0 17 56
c9 30 13 66 10 80 -5 19 -3 24 13 24 31 0 33 -15 11 -86 -11 -36 -20 -68 -20
-71 0 -2 23 -3 52 -1 l52 3 11 53 c7 29 8 55 4 58 -18 11 -8 24 17 24 29 0 29
-6 5 -102 l-9 -38 179 0 179 0 0 28 c0 15 5 45 11 67 8 29 8 40 0 43 -15 5
-14 32 2 32 36 -1 40 -15 23 -88 -9 -39 -16 -73 -16 -76 0 -4 99 -6 220 -6
191 0 219 2 214 15 -4 10 0 15 10 15 9 0 19 -7 22 -15 5 -12 25 -15 89 -15 64
0 84 3 89 15 7 19 35 19 42 0 5 -12 25 -15 90 -15 72 0 89 3 114 22 l30 22 30
-22 c25 -19 42 -22 115 -22 50 0 85 4 85 10 0 6 7 10 15 10 8 0 15 -4 15 -10
0 -16 207 -13 214 3 5 9 7 9 12 0 8 -18 220 -18 228 0 5 9 7 9 12 0 4 -10 61
-13 234 -13 173 0 230 3 233 13 4 9 6 9 6 0 1 -10 32 -13 121 -13 l120 0 0
130 c0 97 -3 130 -12 130 -10 0 -10 2 0 9 16 10 16 694 -1 726 -7 13 -7 20 1
23 13 4 16 1732 4 1905 -4 53 -4 97 1 97 4 0 6 48 5 108 -1 77 -6 112 -16 125
-13 15 -13 17 1 17 16 0 17 32 17 369 0 286 -3 370 -12 374 -10 4 -10 6 0 6 8
1 12 20 12 61 l0 60 -454 0 c-390 0 -455 -2 -466 -15 -16 -19 -64 -19 -80 0
-9 11 -32 15 -80 15 -48 0 -71 -4 -80 -15 -16 -20 -69 -20 -76 0 -5 11 -24 15
-80 15 -64 0 -74 -2 -74 -17 -1 -17 -1 -17 -14 0 -11 15 -31 17 -150 17 -114
0 -136 -2 -136 -15 0 -8 -4 -15 -10 -15 -5 0 -10 7 -10 15 0 13 -47 15 -360
15 -198 0 -360 -3 -360 -6 0 -13 44 -94 51 -94 3 0 12 7 19 15 16 19 64 19 83
0 9 -8 23 -35 33 -61 23 -60 16 -72 -64 -111 -2 0 4 -15 12 -32 15 -28 18 -30
43 -18 20 9 27 9 30 0 3 -8 12 -7 32 4 37 22 78 10 93 -25 17 -38 17 -38 34
-14 22 32 78 30 100 -3 l16 -24 21 20 c30 28 78 22 94 -11 17 -34 16 -110 -2
-134 -19 -26 -73 -26 -92 0 -11 15 -17 17 -33 6 -40 -24 -100 -3 -100 36 0 16
-10 15 -32 -5 -10 -9 -31 -16 -48 -15 l-30 1 15 -30 c14 -25 21 -29 59 -29 53
0 71 -18 88 -89 12 -53 12 -54 -16 -77 -34 -30 -28 -59 14 -68 16 -3 38 -15
47 -26 10 -11 25 -20 35 -20 10 0 18 -4 18 -10 0 -5 14 -10 30 -10 26 0 31 -5
37 -30 l6 -31 19 21 c22 24 70 26 92 4 24 -23 22 -135 -2 -157 -22 -20 -73
-22 -90 -5 -6 6 -22 13 -34 15 -12 2 -25 7 -28 11 -3 5 -13 11 -22 15 -10 3
-18 15 -18 26 0 22 -16 36 -25 22 -8 -14 54 -111 70 -111 7 0 27 -11 43 -25
17 -14 37 -25 47 -25 33 0 55 -20 55 -50 0 -35 -14 -39 -31 -9 -7 14 -17 19
-30 16 -11 -3 -56 14 -107 39 -48 24 -97 44 -109 44 -26 0 -73 75 -73 118 0
39 -23 93 -50 117 -36 33 -63 100 -56 139 6 31 3 39 -30 68 -20 18 -43 47 -51
63 -8 17 -24 37 -35 46 -21 16 -21 16 3 48 13 18 36 35 51 38 31 6 34 19 16
58 -11 24 -38 35 -38 15 0 -5 -7 -10 -15 -10 -9 0 -27 27 -44 65 -18 40 -36
65 -45 65 -21 0 -21 16 0 28 19 11 9 62 -13 62 -8 0 -27 28 -44 65 -16 36 -35
68 -42 71 -7 2 -78 3 -159 2 l-145 -3 28 -70 c31 -77 35 -99 17 -93 -7 3 -23
31 -36 63 -13 33 -31 65 -40 72 -15 11 -15 14 -2 23 11 7 -1 10 -42 10 -32 0
-58 -2 -58 -5 0 -3 11 -28 25 -55 14 -27 25 -56 25 -65 0 -32 -20 -12 -46 46
-18 40 -36 64 -51 70 -14 5 -283 9 -610 9 l-585 0 6 -22 c18 -71 28 -129 23
-134 -13 -13 -26 9 -37 64 -17 81 -30 92 -106 92 l-62 0 -12 -37 c-26 -83 -65
-104 -119 -67 -23 17 -24 36 -5 89 5 14 4 17 -3 10 -6 -5 -18 -36 -27 -67 -15
-54 -31 -77 -43 -64 -3 3 2 32 11 64 9 32 16 62 16 66 0 3 -105 5 -232 2 -128
-2 -242 -4 -253 -4 -11 -1 -89 2 -173 4 -117 4 -157 2 -169 -8 -13 -10 -17
-10 -20 0 -7 19 -113 16 -113 -3 0 -8 -4 -15 -10 -15 -5 0 -10 7 -10 15 0 12
-17 15 -95 15 -78 0 -95 -3 -95 -15 0 -8 -4 -15 -10 -15 -5 0 -10 7 -10 15 0
21 -162 22 -179 1 -19 -23 -49 -25 -75 -5 -37 29 -166 27 -206 -3 l-30 -22
-30 22 c-24 18 -43 22 -104 22 -50 0 -76 -4 -79 -12 -4 -10 -6 -10 -6 0 -1 9
-103 12 -476 12 l-475 0 0 -260z m2647 232 c10 -6 7 -27 -13 -90 -13 -45 -29
-82 -34 -82 -14 0 -12 31 6 81 8 24 13 56 10 72 -6 28 6 35 31 19z m2241 -22
c11 -12 27 -39 37 -60 17 -37 17 -41 1 -65 -14 -22 -24 -26 -53 -23 -33 3 -40
9 -67 59 -30 55 -30 57 -13 82 22 33 68 36 95 7z m278 -80 c28 -88 28 -90 11
-90 -8 0 -21 26 -32 63 -10 34 -25 68 -34 75 -14 11 -14 14 -1 22 25 16 31 8
56 -70z m-3023 35 c-3 -46 -25 -135 -35 -141 -19 -12 -20 8 -3 78 13 52 15 73
6 76 -17 6 -2 24 17 20 12 -3 16 -13 15 -33z m357 23 c-1 -33 -37 -152 -48
-156 -16 -5 -15 24 4 87 12 41 13 56 3 67 -9 11 -7 14 15 14 14 0 26 -6 26
-12z m2827 -54 c6 -27 11 -67 12 -89 0 -36 -1 -38 -13 -22 -8 10 -17 42 -21
72 -3 29 -13 59 -21 66 -12 10 -12 14 -2 20 22 15 33 4 45 -47z m-2950 16 c13
-27 0 -113 -20 -138 -17 -22 -80 -11 -93 16 -14 28 5 129 27 143 26 17 73 6
86 -21z m3133 10 c15 -15 20 -33 20 -74 0 -62 -16 -86 -59 -86 -39 0 -54 22
-59 84 -4 45 -1 57 17 75 26 26 55 27 81 1z m-3500 -32 c0 -72 -13 -138 -26
-138 -16 0 -17 22 -5 93 4 26 4 50 -1 53 -15 10 -8 24 12 24 16 0 20 -7 20
-32z m-1032 6 c18 -12 22 -25 22 -70 0 -64 -25 -100 -63 -88 -36 11 -42 22
-42 85 0 48 4 63 19 75 25 18 36 18 64 -2z m202 -69 c0 -41 -4 -77 -10 -80 -6
-4 -10 22 -10 69 0 47 -4 76 -11 76 -5 0 -8 4 -4 10 3 5 12 7 20 3 11 -4 15
-23 15 -78z m284 48 c9 -58 7 -133 -4 -133 -5 0 -10 1 -10 3 -6 84 -15 143
-21 145 -16 7 -9 22 10 22 14 0 20 -10 25 -37z m232 23 c28 -21 28 -131 0
-152 -26 -19 -55 -18 -78 3 -13 12 -18 31 -18 74 0 48 4 60 22 73 28 20 49 20
74 2z m188 6 c3 -4 2 -43 -1 -85 -4 -55 -10 -77 -19 -77 -11 0 -12 16 -7 75 4
53 3 75 -6 75 -6 0 -11 5 -11 10 0 12 37 14 44 2z m3782 -14 c-3 -13 -6 -51
-6 -85 0 -51 -3 -63 -16 -63 -14 0 -15 9 -9 69 5 46 3 71 -4 75 -20 13 -12 26
15 26 22 0 25 -3 20 -22z m316 -63 c6 -85 6 -91 -11 -80 -6 3 -11 35 -11 70 0
35 -4 67 -10 70 -17 10 -11 27 8 23 14 -3 18 -18 24 -83z m218 65 c15 -15 20
-33 20 -70 0 -37 -5 -55 -20 -70 -24 -24 -38 -25 -68 -4 -18 13 -22 25 -22 71
0 85 43 120 90 73z m-5952 -21 c-3 -8 -7 -3 -11 10 -4 17 -3 21 5 13 5 -5 8
-16 6 -23z m192 11 c-6 -11 -13 -20 -16 -20 -2 0 0 9 6 20 6 11 13 20 16 20 2
0 0 -9 -6 -20z m279 -57 c-2 -79 -6 -70 -11 25 -2 28 0 52 5 52 4 0 6 -35 6
-77z m5701 -3 c0 -44 -4 -80 -9 -80 -5 0 -11 36 -13 80 -2 59 0 80 10 80 8 0
12 -23 12 -80z m229 -2 c-2 -86 -6 -76 -11 25 -2 31 0 57 5 57 4 0 6 -37 6
-82z m-6129 3 c0 -40 -5 -63 -15 -71 -17 -14 -21 0 -4 17 6 6 9 35 7 66 -1 30
0 53 5 50 4 -2 7 -30 7 -62z m2394 10 c3 -5 -6 -43 -21 -85 -23 -65 -30 -76
-47 -74 -12 2 -29 -6 -39 -19 -18 -23 -52 -30 -73 -15 -26 17 -33 48 -21 95
22 86 65 110 113 62 18 -18 23 -32 19 -48 -16 -53 -14 -59 6 -17 12 25 22 60
22 78 1 23 6 32 18 32 10 0 20 -4 23 -9z m443 -53 c47 -46 55 -79 26 -110 -28
-32 -66 -23 -112 27 -46 50 -51 75 -21 105 30 30 60 24 107 -22z m1236 16 c21
-22 26 -24 50 -13 42 19 72 0 95 -63 23 -62 17 -87 -26 -109 l-31 -16 24 -23
c13 -12 29 -19 35 -15 28 18 62 -6 86 -61 27 -60 24 -98 -7 -115 -18 -9 -18
-11 -3 -34 9 -14 22 -25 29 -25 20 0 75 -152 62 -168 -8 -11 -15 -5 -31 26
-20 38 -22 40 -41 26 -11 -8 -33 -14 -50 -12 -24 2 -35 12 -57 53 -34 62 -35
88 -3 113 21 17 23 21 10 38 -8 12 -26 19 -46 19 -27 0 -38 7 -61 40 -39 57
-46 98 -19 122 12 10 30 20 40 23 18 5 18 7 -5 34 -19 21 -28 26 -37 17 -31
-31 -82 1 -111 73 -20 49 -20 52 4 76 27 27 64 25 93 -6z m-4153 -24 c0 -6 10
-15 23 -20 14 -6 16 -9 6 -9 -9 -1 -24 8 -34 19 -10 11 -13 20 -7 20 7 0 12
-5 12 -10z m4563 -66 c20 -36 37 -72 37 -80 0 -28 -20 -13 -46 34 -15 26 -39
57 -53 70 -22 19 -24 24 -11 32 26 17 34 11 73 -56z m-2430 19 c-4 -41 -42
-143 -54 -143 -14 0 -11 32 10 93 12 33 16 59 10 62 -17 11 -9 26 14 23 18 -2
22 -9 20 -35z m-127 -18 c28 -28 27 -59 -4 -125 -20 -41 -62 -52 -93 -24 -10
9 -20 15 -22 13 -1 -2 -7 -13 -13 -23 -16 -29 -38 -40 -68 -32 -40 10 -50 42
-34 106 10 41 20 58 41 70 24 13 30 13 55 -1 26 -15 28 -14 54 13 32 35 52 35
84 3z m-359 7 c12 -8 11 -17 -18 -134 -6 -22 -16 -38 -24 -38 -18 0 -18 -3 0
67 9 32 13 70 9 86 -6 28 7 35 33 19z m-86 -53 c17 -17 19 -28 14 -67 -10 -72
-15 -82 -42 -93 -17 -6 -33 -5 -51 4 -25 12 -27 17 -27 81 0 55 3 70 19 82 28
20 63 17 87 -7z m3633 5 c28 -11 17 -174 -11 -174 -13 0 -14 12 -8 71 5 53 4
73 -5 79 -7 4 -9 13 -6 19 8 13 9 13 30 5z m-4895 -21 c22 -19 31 -87 17 -130
-9 -27 -46 -39 -75 -23 -18 9 -21 20 -21 73 0 65 5 80 30 90 24 9 27 8 49 -10z
m219 5 c14 -14 16 -126 3 -147 -14 -22 -22 3 -20 61 1 29 -1 63 -5 76 -8 24 3
29 22 10z m236 -10 c23 -33 21 -113 -4 -138 -28 -28 -66 -26 -86 5 -21 33 -13
124 13 143 26 19 60 14 77 -10z m304 9 c6 -7 14 -38 18 -69 6 -48 4 -58 -15
-77 -27 -27 -66 -27 -85 1 -19 27 -22 128 -4 146 16 16 73 15 86 -1z m206 -9
c9 -12 16 -43 16 -68 0 -25 -7 -56 -16 -68 -18 -26 -60 -29 -86 -5 -24 22 -25
118 -1 145 23 25 68 23 87 -4z m166 -62 c0 -47 -5 -88 -10 -91 -14 -9 -18 9
-22 98 -3 68 -1 77 14 77 16 0 18 -10 18 -84z m4144 68 c9 -8 16 -23 16 -32 0
-9 3 -33 6 -53 5 -29 2 -41 -15 -58 -25 -25 -58 -27 -83 -4 -13 12 -18 31 -18
74 0 64 16 89 55 89 13 0 31 -7 39 -16z m188 -1 c24 -22 25 -118 1 -145 -20
-22 -51 -23 -75 -1 -24 21 -26 124 -2 147 20 21 53 20 76 -1z m470 0 c13 -12
18 -31 18 -74 0 -51 -3 -61 -24 -74 -50 -33 -92 21 -80 102 9 60 48 81 86 46z
m-6443 4 c-2 -1 -13 -9 -24 -17 -19 -14 -19 -14 -6 3 7 9 18 17 24 17 6 0 8
-1 6 -3z m42 -14 c13 -16 12 -17 -3 -4 -10 7 -18 15 -18 17 0 8 8 3 21 -13z
m219 -58 c0 -44 -4 -75 -10 -75 -6 0 -9 19 -6 47 2 25 0 59 -5 75 -6 21 -4 28
7 28 11 0 14 -17 14 -75z m5930 -5 c0 -47 -4 -80 -10 -80 -6 0 -10 29 -10 68
0 40 -5 73 -12 80 -9 9 -7 12 10 12 21 0 22 -4 22 -80z m468 -2 l-1 -83 -6 70
c-3 39 -10 76 -14 83 -5 8 -3 12 7 12 13 0 16 -14 14 -82z m239 46 c1 -18 0
-22 -4 -9 -3 11 -10 26 -17 34 -9 11 -8 13 4 9 8 -2 16 -18 17 -34z m-3560
-57 c19 -14 5 -29 -20 -21 -12 4 -39 18 -61 31 -21 14 -47 23 -57 20 -25 -7
-33 7 -17 32 12 20 14 19 78 -16 36 -20 71 -40 77 -46z m-742 47 c31 -12 36
-50 15 -108 -22 -59 -56 -84 -90 -66 -26 14 -28 13 -42 -15 -8 -15 -18 -21
-25 -17 -9 6 -7 24 8 76 15 48 17 71 10 80 -13 15 -4 26 19 26 10 0 23 7 30
15 13 16 47 20 75 9z m-2549 -99 c-3 -8 -13 -15 -23 -15 -17 1 -17 1 0 11 9 5
17 18 18 27 0 11 2 12 6 4 3 -7 2 -19 -1 -27z m-66 0 c14 -19 14 -19 -2 -6
-10 7 -18 18 -18 24 0 6 1 8 3 6 1 -2 9 -13 17 -24z m2282 13 c14 -12 13 -21
-10 -90 -15 -47 -30 -78 -38 -78 -18 0 -18 7 5 78 12 40 15 64 9 70 -10 10 -3
32 11 32 4 0 14 -6 23 -12z m1253 -41 c51 -50 55 -68 20 -102 -33 -34 -52 -31
-107 16 -52 44 -61 78 -31 111 28 31 68 23 118 -25z m-1707 -13 c2 -1 -4 -38
-13 -82 -15 -69 -22 -82 -53 -107 -19 -16 -49 -30 -66 -31 -17 -2 -47 -6 -68
-10 -51 -8 -73 24 -66 98 6 62 36 93 80 84 15 -3 30 -1 33 4 10 16 71 12 85
-5 18 -22 30 -18 30 10 0 14 -4 25 -10 25 -5 0 -7 7 -4 15 6 14 37 13 52 -1z
m337 6 c3 -5 1 -29 -5 -52 -6 -24 -16 -60 -21 -80 -6 -22 -16 -38 -24 -38 -19
0 -19 8 0 82 9 33 13 68 10 79 -5 14 -2 19 14 19 11 0 23 -4 26 -10z m3033
-38 c4 -26 15 -28 32 -7 19 23 68 19 92 -9 20 -22 23 -22 49 -7 34 20 75 3 85
-34 9 -35 -4 -112 -22 -130 -22 -21 -64 -19 -90 6 -19 18 -25 19 -43 7 -18
-11 -26 -10 -52 5 -17 9 -36 17 -43 17 -8 0 -18 27 -25 69 -8 42 -18 72 -27
75 -19 7 -18 24 4 29 27 7 37 2 40 -21z m-3154 9 c3 -4 -1 -43 -9 -86 -8 -42
-15 -79 -15 -81 0 -2 -7 -4 -16 -4 -14 0 -15 7 -8 53 4 28 8 69 7 90 -1 30 3
37 17 37 11 0 21 -4 24 -9z m-1764 -124 c0 -100 -18 -93 -20 8 -2 88 -2 87 10
80 6 -3 10 -43 10 -88z m255 79 c28 -21 28 -131 0 -152 -27 -20 -52 -17 -76 7
-18 18 -21 30 -17 77 7 75 45 103 93 68z m236 4 c16 -9 19 -22 19 -75 0 -69
-14 -95 -52 -95 -40 0 -58 28 -58 88 0 80 35 111 91 82z m201 -7 c23 -21 25
-109 2 -141 -18 -26 -60 -29 -86 -5 -23 21 -25 109 -2 141 18 26 60 29 86 5z
m306 -75 c2 -50 -1 -88 -7 -88 -14 0 -21 27 -21 90 0 32 -4 62 -10 65 -18 11
-10 26 13 23 21 -3 22 -8 25 -90z m216 70 c24 -33 21 -120 -4 -143 -23 -20
-63 -23 -85 -5 -22 18 -21 127 2 152 23 25 68 23 87 -4z m4328 5 c24 -22 25
-118 1 -145 -19 -21 -52 -23 -78 -4 -27 19 -34 125 -10 149 21 22 63 22 87 0z
m156 -53 c2 -35 0 -75 -3 -88 -11 -43 -25 -11 -25 58 0 38 -4 72 -10 75 -18
11 -10 26 13 23 20 -3 22 -9 25 -68z m232 -21 c0 -57 -4 -88 -10 -84 -5 3 -10
37 -10 76 0 39 -4 69 -10 69 -5 0 -10 7 -10 15 0 8 9 15 20 15 19 0 20 -7 20
-91z m238 3 c2 -52 -1 -82 -8 -82 -6 0 -10 28 -10 69 0 39 -4 73 -10 76 -17
10 -11 27 8 23 14 -3 17 -16 20 -86z m-6436 71 c-7 -3 -18 -16 -23 -30 -5 -14
-12 -23 -16 -20 -8 9 25 57 40 56 9 0 8 -2 -1 -6z m46 -1 c17 -12 27 -104 14
-129 -16 -29 -60 -35 -83 -12 -20 20 -25 39 -10 39 5 0 11 -9 14 -20 3 -13 14
-20 30 -20 34 0 40 13 40 74 -1 36 -6 53 -19 63 -19 14 -7 18 14 5z m6621 -74
l-2 -83 -6 70 c-4 39 -10 76 -15 83 -4 7 -1 12 8 12 13 0 16 -14 15 -82z m195
55 c-36 -70 7 -158 54 -111 16 16 15 110 0 128 -11 12 -10 12 5 1 20 -16 24
-120 5 -139 -19 -19 -66 -15 -78 7 -20 38 -6 141 19 141 5 0 3 -12 -5 -27z
m236 7 c0 -5 -5 -10 -11 -10 -5 0 -7 5 -4 10 3 6 8 10 11 10 2 0 4 -4 4 -10z
m-4587 -12 c16 -12 15 -19 -13 -93 -19 -51 -40 -90 -59 -107 -26 -23 -28 -29
-15 -36 14 -8 13 -19 -11 -98 -18 -57 -36 -97 -52 -111 -13 -13 -20 -23 -15
-23 22 0 31 -49 18 -93 -16 -55 -72 -137 -92 -137 -8 0 -13 -4 -10 -9 6 -10
-59 -210 -74 -225 -6 -6 -6 -14 1 -23 17 -19 6 -132 -16 -178 -15 -30 -27 -41
-47 -43 -25 -3 -27 -6 -17 -24 11 -20 8 -29 -52 -195 -11 -29 -39 -20 -31 9 3
14 -2 26 -18 38 -27 21 -20 39 13 33 19 -4 26 0 30 18 4 13 4 34 1 46 -4 16
-2 23 8 23 18 0 22 89 6 152 -10 41 -9 52 7 88 19 43 40 60 73 60 16 0 23 13
36 68 9 38 14 76 10 85 -4 10 0 19 9 23 16 6 19 65 4 80 -29 29 29 179 79 207
14 8 13 11 -2 28 -16 18 -17 26 -6 76 16 75 36 96 84 90 37 -5 38 -4 31 21 -3
15 -17 37 -30 49 -27 26 -28 43 -7 107 20 58 50 76 96 58 28 -10 30 -10 24 12
-9 35 7 46 37 24z m1580 -20 c38 -51 0 -91 -97 -104 -53 -7 -79 12 -79 55 0
38 9 48 59 67 56 20 93 14 117 -18z m2994 -30 c-3 -8 -6 -5 -6 6 -1 11 2 17 5
13 3 -3 4 -12 1 -19z m21 -65 c9 -7 11 -13 6 -13 -17 0 -34 23 -33 45 1 20 1
20 6 0 3 -11 12 -26 21 -32z m-4899 21 c19 -14 22 -23 18 -53 -14 -103 -61
-144 -117 -102 l-29 21 -11 -40 c-6 -24 -17 -40 -25 -40 -19 0 -19 31 0 94 11
36 12 52 4 62 -9 11 -7 15 5 20 9 3 22 4 30 1 7 -3 23 7 35 24 24 33 55 37 90
13z m-423 -76 c19 -61 -27 -158 -76 -158 -11 0 -20 -7 -20 -15 0 -17 -60 -45
-96 -45 -39 0 -54 25 -54 91 0 75 23 104 76 96 19 -3 34 -2 34 4 0 11 31 43
56 57 24 13 71 -4 80 -30z m213 -9 c19 -18 22 -28 17 -61 -4 -22 -13 -55 -21
-74 -12 -30 -19 -34 -49 -34 -49 0 -71 33 -62 94 13 85 67 120 115 75z m3989
-41 c7 -7 12 -36 12 -79 0 -76 -14 -93 -68 -87 -36 4 -54 41 -49 102 7 75 54
104 105 64z m-5930 -16 c6 -9 12 -36 12 -62 0 -79 -46 -114 -90 -70 -23 23
-28 106 -7 132 23 30 60 30 85 0z m210 -66 c2 -59 -1 -86 -8 -81 -5 3 -10 37
-10 75 0 38 -5 72 -10 75 -13 8 -2 27 13 22 8 -2 13 -36 15 -91z m240 1 c2
-54 -1 -87 -7 -87 -14 0 -21 35 -18 90 1 25 -2 56 -6 68 -8 20 -6 23 10 20 16
-3 18 -15 21 -91z m262 78 c19 -23 23 -105 8 -135 -17 -31 -62 -38 -89 -14
-15 13 -19 31 -19 79 0 34 5 66 12 73 17 17 73 15 88 -3z m181 5 c16 -9 19
-22 19 -72 0 -69 -17 -98 -58 -98 -43 0 -62 27 -62 84 0 82 41 117 101 86z
m329 -81 c0 -68 -3 -90 -12 -87 -8 3 -14 30 -16 74 -2 38 -7 73 -13 79 -16 16
-10 25 16 25 25 0 25 -1 25 -91z m180 1 c0 -73 -3 -90 -15 -90 -12 0 -15 15
-15 75 0 43 -4 75 -10 75 -5 0 -10 7 -10 15 0 9 9 15 25 15 25 0 25 -1 25 -90z
m4344 74 c3 -9 6 -49 6 -91 0 -55 -3 -74 -12 -71 -8 3 -14 29 -16 69 -2 38 -9
70 -18 80 -8 8 -11 19 -7 22 12 13 41 7 47 -9z m418 -1 c24 -21 26 -124 2
-147 -20 -21 -63 -20 -86 1 -23 21 -25 109 -2 141 18 26 60 29 86 5z m216 -67
c2 -46 -2 -84 -8 -90 -7 -7 -10 12 -10 61 0 49 -5 76 -15 86 -16 17 -9 29 15
25 12 -3 16 -20 18 -82z m250 68 c18 -13 22 -25 22 -71 0 -62 -18 -93 -53 -93
-39 0 -57 29 -57 91 0 48 4 60 22 73 12 9 27 16 33 16 6 0 21 -7 33 -16z
m-2023 -24 c11 -20 23 -30 39 -30 20 0 28 -12 56 -85 17 -47 47 -105 66 -128
66 -82 95 -177 54 -177 -16 0 -20 7 -20 30 0 17 -3 30 -6 30 -16 0 -44 -23
-44 -35 0 -44 -64 18 -94 90 -22 52 -20 70 11 94 23 19 25 24 14 47 -7 17 -17
24 -26 20 -11 -4 -24 12 -47 59 -20 39 -39 66 -52 69 -21 6 -21 7 3 26 13 11
25 20 27 20 2 0 10 -13 19 -30z m2245 -45 c0 -46 -4 -75 -11 -75 -6 0 -9 24
-8 63 1 35 -1 69 -5 75 -4 7 -1 12 8 12 13 0 16 -14 16 -75z m-3126 -37 c16
-53 22 -86 16 -92 -14 -14 -25 1 -45 64 -10 30 -24 59 -31 63 -29 17 -15 39
28 46 4 0 18 -36 32 -81z m686 43 c0 -3 -9 -41 -20 -85 -11 -43 -20 -80 -20
-82 0 -2 -7 -4 -15 -4 -19 0 -19 20 0 89 10 39 11 59 4 68 -6 6 -8 16 -5 21 6
10 56 4 56 -7z m-2336 -47 c21 -21 20 -70 -3 -121 -16 -34 -26 -43 -54 -48
-39 -8 -54 -36 -30 -56 31 -26 35 -48 17 -102 -21 -66 -25 -69 -76 -76 -35 -5
-44 -10 -46 -29 -2 -13 3 -25 12 -28 9 -3 16 -14 16 -23 0 -26 -42 -145 -54
-153 -18 -12 -25 1 -19 37 4 27 2 36 -11 41 -27 10 -39 -9 -25 -40 15 -32 0
-54 -41 -58 -23 -3 -24 0 -22 31 3 22 0 31 -7 27 -7 -4 -11 1 -11 13 0 12 4
21 9 21 5 0 23 11 40 26 25 21 36 24 66 18 30 -5 35 -4 35 13 0 10 -7 28 -15
40 -14 20 -14 28 0 83 8 33 13 71 9 85 -5 19 -2 25 10 25 8 0 20 10 27 22 10
18 8 24 -12 39 -24 18 -24 18 -33 -11 -5 -17 -15 -30 -22 -30 -17 0 -18 36 -3
96 8 32 8 48 0 57 -13 17 -5 27 24 27 12 0 30 9 40 20 10 11 30 20 45 20 18 0
31 8 40 25 16 30 69 35 94 9z m-437 -52 c8 -5 9 -35 4 -106 -7 -86 -11 -102
-31 -118 -23 -18 -23 -35 -5 -110 7 -27 6 -28 -28 -28 -20 0 -48 -5 -62 -12
-31 -14 -34 -11 -27 31 3 26 12 36 33 45 37 13 33 25 -17 51 -34 18 -39 25
-42 60 -2 22 2 57 8 78 9 30 17 39 41 44 16 3 32 10 35 14 3 5 18 9 35 9 29 0
40 15 17 22 -14 5 -2 28 15 28 7 0 17 -4 24 -8z m-932 -87 c20 -19 25 -34 25
-72 0 -60 -21 -93 -59 -93 -51 0 -62 18 -59 95 3 63 5 71 28 82 34 17 37 17
65 -12z m529 14 c28 -13 36 -35 36 -101 0 -54 -18 -78 -60 -78 -46 0 -60 23
-60 95 0 55 3 66 22 79 27 19 30 19 62 5z m-1000 -21 c23 -33 21 -113 -4 -138
-22 -22 -42 -25 -71 -10 -27 15 -28 144 -1 159 28 17 60 12 76 -11z m216 -69
c0 -68 -3 -90 -12 -87 -8 3 -14 30 -16 73 -2 38 -7 74 -12 81 -12 14 -3 24 22
24 16 0 18 -9 18 -91z m417 5 c-5 -90 -8 -100 -28 -89 -8 6 -10 27 -5 71 4 39
3 65 -4 69 -20 13 -10 35 16 35 l27 0 -6 -86z m557 70 c11 -10 16 -34 16 -74
0 -70 -26 -106 -70 -95 -44 11 -50 24 -50 96 0 54 4 70 18 78 26 15 69 13 86
-5z m4486 -34 c0 -27 -4 -50 -10 -50 -12 0 -32 38 -26 49 3 5 -1 14 -9 21 -19
16 -10 30 21 30 22 0 24 -4 24 -50z m230 -40 c0 -53 -4 -90 -10 -90 -11 0 -12
11 -10 86 1 35 -3 54 -14 63 -19 16 -12 31 15 31 17 0 19 -8 19 -90z m264 68
c9 -12 16 -43 16 -68 0 -57 -22 -90 -60 -90 -45 0 -60 23 -60 90 0 67 15 90
60 90 18 0 34 -8 44 -22z m230 6 c11 -10 16 -34 16 -74 0 -65 -15 -90 -55 -90
-39 0 -55 25 -55 87 0 63 18 93 56 93 12 0 30 -7 38 -16z m216 -75 c0 -43 -4
-79 -9 -79 -9 0 -20 158 -12 166 13 13 21 -18 21 -87z m-6880 1 c0 -47 -4 -80
-10 -80 -6 0 -10 31 -10 74 0 50 -4 76 -12 79 -7 3 -3 6 10 6 21 1 22 -2 22
-79z m3830 30 c26 -26 28 -124 3 -152 -17 -19 -59 -24 -81 -9 -15 9 -31 69
-32 114 0 34 32 67 65 67 14 0 34 -9 45 -20z m-1972 -145 c5 -4 -30 -160 -39
-169 -21 -23 -27 11 -14 74 9 44 10 69 3 77 -15 18 1 35 25 27 12 -3 23 -7 25
-9z m-1836 -62 c24 -21 26 -124 2 -147 -20 -21 -53 -20 -76 1 -24 22 -25 118
-1 145 20 22 51 23 75 1z m240 0 c24 -22 25 -118 1 -145 -19 -22 -52 -23 -78
-4 -16 11 -20 26 -20 74 0 35 6 66 14 76 17 21 59 21 83 -1z m242 -5 c9 -12
16 -43 16 -68 0 -57 -22 -90 -60 -90 -44 0 -60 23 -60 87 0 39 5 62 17 75 23
25 68 23 87 -4z m216 -53 c0 -60 -3 -75 -15 -75 -12 0 -15 13 -15 59 0 33 -4
63 -10 66 -18 11 -10 25 15 25 24 0 25 -2 25 -75z m178 58 c-2 -13 -11 -17
-28 -15 -20 2 -28 -3 -37 -28 -13 -35 -33 -40 -33 -7 0 39 27 67 66 67 28 0
35 -4 32 -17z m370 -58 c-4 -88 -22 -101 -26 -18 -2 37 -8 61 -18 66 -24 13
-16 27 16 27 l31 0 -3 -75z m160 23 c-4 -64 -28 -80 -28 -19 0 23 -4 41 -10
41 -5 0 -10 7 -10 15 0 9 10 15 26 15 24 0 25 -2 22 -52z m4982 17 c0 -43 -14
-45 -34 -3 -20 39 -21 38 9 38 22 0 25 -4 25 -35z m254 19 c18 -17 22 -74 6
-74 -5 0 -10 11 -10 25 0 33 -33 51 -54 29 -9 -8 -16 -24 -16 -35 0 -10 -4
-19 -10 -19 -16 0 -11 52 7 72 20 22 56 23 77 2z m240 -6 c18 -25 21 -68 7
-68 -5 0 -11 12 -13 26 -7 59 -68 52 -68 -7 0 -16 -4 -29 -10 -29 -16 0 -12
67 6 84 22 23 60 20 78 -6z m-6904 -254 c0 -8 -4 -14 -9 -14 -12 0 -32 26 -25
33 10 9 34 -4 34 -19z m258 7 c3 -10 -1 -12 -18 -8 -13 3 -32 1 -42 -4 -25
-13 -35 -4 -18 16 16 19 71 16 78 -4z m4685 -18 c17 -3 32 -15 37 -29 5 -12
19 -24 32 -26 17 -2 24 -11 26 -31 4 -31 -24 -49 -39 -26 -7 11 -13 10 -27 -9
-15 -20 -26 -23 -68 -20 l-49 3 -3 57 c-4 70 11 102 41 94 12 -4 35 -9 50 -13z
m-3092 -315 c14 -26 6 -117 -13 -147 -16 -27 -34 -27 -75 2 -32 21 -33 25 -31
77 2 43 7 56 21 58 12 3 17 -3 17 -22 0 -30 8 -32 36 -12 16 12 17 18 7 35
-10 15 -10 21 0 24 21 9 26 7 38 -15z m108 -98 c13 -6 17 -17 14 -34 -4 -18 0
-26 15 -30 15 -5 42 -43 42 -61 0 -13 -30 -3 -39 12 -6 12 -20 16 -46 15 -33
-2 -36 -1 -29 15 4 10 9 32 10 48 3 52 3 52 33 35z m2931 -90 c0 -30 -6 -43
-30 -63 -44 -38 -68 -42 -99 -20 -14 11 -27 30 -29 43 -10 63 36 103 68 60 17
-22 17 -22 31 -3 15 21 39 33 52 26 4 -2 7 -22 7 -43z m172 30 c11 0 2 -49
-11 -63 -12 -13 -41 4 -41 23 0 31 12 51 27 46 8 -3 19 -6 25 -6z m152 -32
l29 -12 -6 -87 c-5 -85 -5 -87 22 -113 28 -26 28 -26 46 -6 18 20 60 26 81 12
37 -24 47 -124 16 -162 -23 -29 -66 -29 -96 -1 l-24 22 -25 -25 c-15 -14 -31
-26 -36 -26 -6 0 -27 -12 -48 -26 -27 -18 -48 -24 -75 -23 -42 4 -43 3 -51
-32 -6 -24 -4 -25 23 -21 17 2 33 8 36 13 3 5 12 9 20 9 9 0 22 7 30 15 18 18
85 20 102 3 7 -7 12 -40 12 -78 0 -83 -18 -106 -79 -97 -33 4 -40 2 -44 -14
-3 -10 -12 -19 -21 -19 -12 0 -16 11 -17 43 -1 46 -4 42 -14 -16 -4 -28 -13
-40 -31 -47 -17 -7 -24 -17 -24 -36 0 -21 3 -25 18 -19 43 19 69 16 100 -10
30 -25 32 -26 32 -6 0 11 -4 22 -10 26 -17 10 2 35 26 35 25 0 25 0 22 -92 -3
-106 -23 -133 -34 -46 -5 39 -9 48 -15 33 -4 -11 -8 -33 -8 -48 -2 -53 -60
-85 -161 -91 -8 -1 -16 -12 -18 -27 -3 -23 1 -27 30 -31 22 -4 36 0 44 10 8
11 15 12 31 3 22 -11 22 -13 7 -138 -6 -53 -34 -61 -35 -10 l-1 32 -9 -32
c-11 -38 -40 -57 -80 -51 -26 4 -30 1 -37 -26 -8 -30 -7 -31 30 -37 55 -8 61
-18 56 -90 -4 -49 -9 -66 -27 -80 -31 -25 -57 -24 -86 5 -19 20 -23 31 -19 66
3 23 9 52 14 64 7 20 5 22 -19 18 -16 -2 -36 4 -51 16 -21 17 -26 18 -53 4
-22 -11 -34 -12 -53 -3 -14 6 -35 11 -48 11 -38 0 -60 33 -52 81 14 86 48 119
100 99 15 -5 37 -10 48 -10 12 0 30 -7 40 -16 14 -13 21 -14 32 -5 8 7 30 11
48 9 29 -3 33 0 36 24 2 20 -2 28 -20 33 -48 15 -58 33 -52 94 7 63 37 101 80
101 13 0 24 4 24 9 0 5 3 16 6 25 4 10 1 16 -10 16 -8 0 -25 10 -36 23 -17 18
-20 30 -16 67 5 45 5 45 -10 -10 -17 -61 -29 -79 -43 -64 -5 5 -3 36 5 73 7
36 12 67 10 69 -2 2 -10 -22 -17 -53 -14 -62 -31 -91 -47 -81 -7 4 -4 29 10
77 15 55 17 73 8 79 -17 11 -2 32 18 26 10 -2 29 -7 45 -10 18 -4 27 -13 27
-26 0 -20 0 -20 20 0 24 24 72 26 90 5 20 -25 30 -17 30 23 0 44 -8 57 -35 57
-11 0 -19 5 -18 10 1 6 4 40 7 75 l5 65 -15 -63 c-19 -76 -46 -100 -97 -86
-39 12 -44 33 -26 127 l12 68 41 -6 c23 -4 49 -14 59 -23 15 -14 17 -14 17 1
0 10 6 17 14 17 13 0 28 45 18 55 -3 3 -27 5 -54 5 -59 0 -104 35 -93 73 30
109 48 126 121 113 37 -7 64 5 64 29 0 7 7 29 16 50 14 35 17 37 52 31 20 -4
50 -12 66 -18z m154 -134 c-10 -10 -28 6 -28 24 0 15 1 15 17 -1 9 -9 14 -19
11 -23z m-557 -12 c25 -21 28 -54 10 -118 -11 -42 -34 -61 -81 -68 -60 -8 -88
31 -75 101 10 54 22 73 58 88 43 19 61 18 88 -3z m-3004 -166 c21 -8 50 -17
65 -20 29 -7 98 -87 98 -114 0 -39 34 -120 64 -153 62 -68 77 -109 40 -109
-19 0 -18 -9 6 -64 18 -40 24 -45 44 -40 64 16 162 -92 128 -142 -8 -13 -46
-34 -61 -34 -5 0 -30 16 -55 35 -37 28 -55 35 -90 35 -44 0 -45 0 -71 58 -15
31 -34 65 -42 74 -22 25 -9 46 32 54 52 9 44 38 -12 42 -23 2 -47 10 -53 18
-17 19 -32 18 -53 -6 -31 -37 -112 -18 -124 29 l-7 26 -6 -30 c-3 -17 -11 -30
-20 -30 -11 0 -17 17 -22 68 -3 37 -12 74 -18 82 -16 19 -4 35 26 35 20 0 24
-5 25 -32 l0 -33 17 35 c9 19 23 39 29 43 7 4 13 12 13 17 0 13 -53 28 -85 23
-21 -3 -39 2 -58 17 -22 18 -27 29 -27 66 0 38 3 45 17 42 10 -2 20 -15 23
-30 5 -25 6 -26 25 -10 12 9 24 25 27 34 4 9 21 18 40 21 18 2 36 5 40 5 4 1
25 -4 45 -12z m4398 -36 c8 -13 -31 -50 -52 -50 -10 0 -27 7 -38 16 -24 18 -7
34 29 27 13 -3 27 0 30 6 9 14 23 14 31 1z m-1461 -70 c-1 -19 -8 -60 -17 -91
-17 -56 -17 -56 -57 -56 -46 0 -46 0 -24 74 9 30 13 65 10 77 -8 31 1 37 49
34 39 -3 40 -4 39 -38z m644 -127 c2 -74 0 -93 -11 -93 -10 0 -16 20 -21 72
-4 40 -12 75 -18 79 -19 12 0 41 24 37 22 -3 23 -8 26 -95z m-3936 70 c27 -24
26 -125 -2 -153 -25 -25 -51 -25 -81 -1 -20 16 -24 28 -24 79 0 35 5 66 14 75
17 22 69 22 93 0z m4488 -73 c0 -73 -3 -90 -15 -90 -12 0 -15 15 -15 74 0 58
-3 75 -16 80 -22 8 -7 26 22 26 24 0 24 -1 24 -90z m235 48 c3 -24 4 -59 1
-78 -2 -19 -5 -41 -5 -47 -1 -7 -5 -13 -10 -13 -4 0 -11 32 -14 71 -3 39 -11
76 -16 83 -13 15 -4 26 20 26 13 0 19 -11 24 -42z m235 -48 c0 -49 -4 -90 -9
-90 -14 0 -21 28 -21 90 0 32 -4 62 -10 65 -18 11 -10 25 15 25 25 0 25 -1 25
-90z m-5086 -2 c-7 -93 -9 -98 -31 -98 -14 0 -15 11 -9 82 7 89 10 98 32 98
13 0 14 -13 8 -82z m4396 -13 c0 -51 -3 -65 -15 -65 -12 0 -15 13 -15 58 0 32
3 62 7 65 17 17 23 2 23 -58z m925 -13 c0 -70 -19 -67 -23 4 -2 43 0 55 10 52
8 -3 13 -23 13 -56z m-2500 17 c72 -20 93 -58 59 -107 -17 -25 -52 -28 -105
-11 -67 23 -89 70 -52 111 19 21 42 22 98 7z m555 -79 c23 -23 24 -31 9 -100
-13 -60 -33 -77 -92 -74 -66 3 -86 12 -94 42 -9 36 13 113 38 135 30 25 113
23 139 -3z m1038 -72 c16 -14 16 -129 -1 -152 -17 -24 -62 -24 -87 -1 -16 14
-20 31 -20 76 0 50 3 60 27 78 26 21 53 21 81 -1z m-4415 -16 c26 -23 24 -125
-3 -152 -43 -43 -110 -10 -110 53 0 104 53 150 113 99z m4061 22 c22 -8 24
-184 2 -184 -14 0 -26 49 -26 113 0 20 -4 37 -10 37 -14 0 -12 27 3 33 6 3 13
6 14 6 1 1 8 -2 17 -5z m-3954 -94 c0 -73 -3 -90 -15 -90 -12 0 -15 15 -15 75
0 43 -4 75 -10 75 -5 0 -10 7 -10 15 0 9 9 15 25 15 25 0 25 -1 25 -90z m4510
0 c0 -73 -3 -90 -15 -90 -12 0 -15 14 -15 69 0 39 -4 73 -10 76 -20 12 -10 35
15 35 25 0 25 -1 25 -90z m231 43 c1 -65 -2 -127 -7 -132 -9 -10 -13 8 -15 72
-1 41 -7 71 -15 78 -17 14 -9 29 17 29 16 0 19 -7 20 -47z m239 -43 c0 -49 -4
-90 -9 -90 -13 0 -21 37 -21 97 0 28 -5 55 -10 58 -15 9 -2 25 21 25 17 0 19
-8 19 -90z m248 74 c19 -13 22 -24 22 -78 0 -70 -10 -86 -55 -86 -45 0 -55 16
-55 86 0 54 3 65 22 78 12 9 27 16 33 16 6 0 21 -7 33 -16z m242 -4 c39 -39
19 -151 -29 -158 -40 -6 -61 24 -61 89 0 48 4 60 22 73 30 21 44 20 68 -4z
m-6390 -9 c5 -11 10 -40 10 -66 0 -78 -66 -119 -107 -66 -16 21 -17 123 -1
139 20 20 86 15 98 -7z m202 8 c43 -11 54 -36 45 -95 -8 -48 -23 -64 -63 -64
-41 0 -54 21 -54 89 0 84 6 89 72 70z m1177 -13 c5 -13 15 -52 22 -86 11 -56
10 -64 -4 -75 -10 -7 -17 -17 -17 -22 0 -6 -21 -13 -47 -17 -61 -8 -88 15
-101 88 l-10 51 -1 -62 c-1 -57 -13 -85 -29 -69 -3 4 -9 36 -13 73 -4 36 -12
69 -19 73 -7 4 -10 16 -7 25 10 25 51 15 55 -12 4 -25 20 -31 28 -9 6 16 95
62 127 65 4 1 12 -10 16 -23z m336 -25 c57 -36 83 -71 53 -71 -8 0 -38 15 -68
34 -40 25 -58 32 -67 24 -15 -12 -28 13 -19 37 9 23 36 17 101 -24z m775 9
c46 -46 12 -98 -72 -107 -51 -5 -59 -3 -82 20 -32 32 -33 51 -1 82 32 33 124
36 155 5z m-2150 -41 c4 -36 9 -45 28 -47 22 -3 27 7 23 51 -3 20 10 22 27 5
17 -17 15 -42 -6 -68 -21 -26 -66 -30 -87 -9 -15 16 -29 94 -20 110 14 21 30
1 35 -42z m2369 27 c37 -20 45 -58 18 -93 -19 -23 -25 -25 -71 -19 -90 10
-131 65 -85 115 19 20 28 22 66 17 24 -3 56 -12 72 -20z m-2939 -34 c0 -49
-23 -82 -59 -82 -33 0 -51 16 -51 47 0 28 16 30 23 3 13 -51 70 -25 66 30 -2
35 0 40 11 40 6 0 10 -17 10 -38z m2240 -12 c24 -24 26 -57 3 -82 -12 -14 -31
-18 -79 -18 -73 0 -94 14 -94 65 0 43 19 54 93 55 44 0 62 -5 77 -20z m250 0
c0 -12 -24 -24 -85 -40 -27 -8 -55 -20 -61 -28 -14 -19 -34 -7 -34 18 0 15 13
23 58 35 31 9 62 18 67 20 21 7 55 5 55 -5z m2057 -5 c42 -8 46 -16 33 -65 -5
-22 -15 -58 -20 -80 -7 -26 -17 -40 -27 -40 -13 0 -14 7 -9 38 17 101 18 117
9 107 -5 -5 -18 -38 -28 -72 -11 -37 -24 -63 -32 -63 -17 0 -17 25 1 85 8 26
12 61 9 78 -5 25 -3 29 13 24 10 -3 34 -8 51 -12z m-1401 -69 c50 -49 53 -62
23 -100 -28 -36 -61 -33 -109 10 -48 44 -58 75 -36 109 27 41 70 34 122 -19z
m1216 8 c17 -16 19 -27 14 -69 -9 -74 -32 -100 -92 -100 -70 -1 -103 12 -111
43 -9 35 13 113 38 134 27 23 122 18 151 -8z m-3737 -127 c8 -73 4 -109 -11
-114 -7 -2 -13 22 -17 68 -3 39 -11 76 -16 83 -13 15 -4 26 20 26 14 0 19 -12
24 -63z m4323 -29 c2 -74 0 -88 -13 -88 -17 0 -18 6 -15 73 1 34 -3 54 -15 67
-21 23 -11 42 18 38 20 -3 22 -10 25 -90z m504 75 c13 -11 18 -30 18 -67 0
-66 -20 -96 -64 -96 -46 0 -56 15 -56 90 0 38 5 71 12 78 17 17 68 15 90 -5z
m-5494 -81 c2 -52 -1 -82 -8 -82 -6 0 -10 28 -10 69 0 39 -5 73 -10 76 -13 8
-2 27 13 22 8 -2 13 -35 15 -85z m240 4 c3 -92 -12 -124 -23 -47 -4 27 -4 55
0 61 4 6 0 21 -9 34 -16 26 -11 38 14 34 12 -3 16 -20 18 -82z m270 54 c14
-28 8 -116 -10 -137 -15 -18 -63 -16 -82 3 -22 22 -22 127 0 149 24 24 76 16
92 -15z m542 -7 c0 -77 -12 -143 -26 -143 -11 0 -14 17 -14 68 0 37 -3 77 -6
90 -5 19 -2 22 20 22 23 0 26 -4 26 -37z m140 -53 c0 -73 -3 -90 -15 -90 -12
0 -15 15 -15 75 0 43 -4 75 -10 75 -5 0 -10 7 -10 15 0 9 9 15 25 15 25 0 25
-1 25 -90z m721 6 c30 -81 30 -101 0 -91 -10 3 -24 -1 -31 -10 -7 -8 -27 -15
-46 -15 -24 0 -38 7 -53 28 -36 51 -43 113 -16 141 13 13 86 31 109 27 5 -1
22 -37 37 -80z m236 39 c58 -61 59 -112 3 -133 -32 -12 -67 7 -97 53 -35 54
-34 88 5 109 39 22 41 21 89 -29z m3017 29 c10 -27 7 -152 -5 -159 -16 -11
-20 -2 -26 74 -3 39 -10 71 -14 71 -5 0 -9 7 -9 15 0 20 46 20 54 -1z m531
-73 c0 -59 -4 -86 -12 -88 -10 -4 -13 14 -13 66 0 38 -4 73 -10 76 -20 12 -11
36 13 33 21 -3 22 -7 22 -87z m253 73 c18 -13 22 -25 22 -74 0 -67 -15 -90
-60 -90 -39 0 -60 32 -60 92 0 75 46 109 98 72z m236 3 c27 -20 31 -122 5
-148 -46 -46 -99 -8 -99 71 0 76 45 113 94 77z m-6394 -16 c27 -51 2 -151 -38
-151 -38 0 -62 29 -62 75 0 24 5 47 10 50 6 4 10 -13 10 -44 0 -55 19 -77 52
-60 14 8 18 22 18 64 0 29 -4 57 -10 60 -5 3 -10 10 -10 16 0 16 19 10 30 -10z
m1930 -47 c25 -83 25 -93 -3 -126 -18 -22 -31 -27 -72 -29 -73 -3 -93 6 -105
49 -25 90 -3 142 59 142 25 0 41 5 45 15 3 8 17 15 30 15 22 0 28 -8 46 -66z
m4680 -16 c0 -57 -3 -78 -10 -68 -5 8 -10 40 -10 71 0 30 -5 60 -12 67 -9 9
-7 12 10 12 21 0 22 -4 22 -82z m240 2 c0 -47 -4 -80 -10 -80 -6 0 -10 31 -10
74 0 50 -4 76 -12 79 -7 3 -3 6 10 6 21 1 22 -2 22 -79z m-5136 -32 c9 -86 4
-117 -18 -99 -7 6 -16 39 -19 72 -3 34 -11 65 -18 69 -20 13 -2 42 23 38 21
-3 24 -11 32 -80z m1826 -86 c43 -73 48 -92 26 -92 -8 0 -29 25 -47 56 -17 31
-40 59 -50 61 -24 7 -24 19 -1 32 27 16 29 15 72 -57z m960 54 c44 -1 48 -21
25 -117 -19 -75 -45 -96 -45 -36 0 32 0 32 -13 7 -24 -47 -101 -42 -114 9 -9
35 14 113 39 134 15 13 29 16 47 11 14 -4 42 -7 61 -8z m-2044 -137 c32 -80
39 -119 21 -119 -9 0 -24 25 -38 66 -13 38 -32 70 -43 76 -19 10 -19 11 -1 24
28 21 37 14 61 -47z m-1552 29 c21 -30 21 -121 0 -142 -23 -24 -70 -20 -88 6
-22 30 -21 116 1 140 23 25 68 23 87 -4z m1313 14 c13 -8 53 -96 53 -117 0
-30 -35 -54 -84 -57 l-49 -3 -27 64 c-14 36 -31 66 -38 69 -7 2 -12 10 -12 17
0 16 35 29 50 20 5 -3 18 -1 27 4 21 12 63 14 80 3z m2981 -76 c2 -45 -2 -84
-7 -89 -16 -16 -20 -7 -26 68 -3 38 -11 72 -17 76 -17 11 2 30 25 27 20 -3 22
-10 25 -82z m202 64 c16 -16 20 -33 20 -81 0 -68 -14 -88 -62 -89 -39 0 -58
33 -58 102 0 47 4 59 22 72 30 21 54 20 78 -4z m278 -67 c-2 -58 -7 -88 -15
-91 -10 -3 -13 16 -13 72 0 44 -4 76 -10 76 -5 0 -10 7 -10 15 0 9 9 15 25 15
l26 0 -3 -87z m-5475 -82 c-4 -9 -9 17 -13 64 -3 49 -1 83 5 87 12 9 20 -127
8 -151z m262 143 c16 -12 20 -26 19 -74 -1 -68 -15 -90 -54 -90 -40 0 -54 24
-55 92 0 48 4 62 19 74 25 18 46 17 71 -2z m223 -63 c2 -41 0 -81 -3 -90 -12
-30 -25 11 -25 76 0 34 -4 65 -10 68 -18 11 -10 26 13 23 20 -3 22 -9 25 -77z
m552 20 c0 -75 -10 -123 -24 -118 -7 3 -10 28 -8 70 2 38 -1 68 -7 72 -21 12
-11 35 14 35 24 0 25 -3 25 -59z m184 37 c24 -34 21 -123 -4 -148 -24 -24 -48
-25 -78 -4 -19 13 -22 24 -22 76 0 43 5 67 17 80 23 25 68 23 87 -4z m559 -50
c21 -89 21 -108 2 -108 -8 0 -19 17 -25 43 -6 23 -15 53 -21 67 -8 22 -9 21
-4 -9 17 -115 18 -141 2 -141 -10 0 -20 21 -32 69 -9 38 -23 72 -31 75 -11 4
-13 -8 -7 -69 5 -64 4 -75 -10 -75 -11 0 -18 18 -27 70 -10 59 -14 69 -26 59
-15 -12 -17 -6 -8 28 5 19 12 22 51 21 31 -2 49 2 57 13 11 16 31 27 52 28 6
1 18 -32 27 -71z m3925 12 c4 -66 -5 -123 -19 -115 -5 4 -9 37 -9 76 0 39 -4
69 -10 69 -5 0 -10 7 -10 16 0 10 7 14 23 12 19 -3 22 -10 25 -58z m252 40
c15 -15 20 -33 20 -72 0 -60 -19 -88 -61 -88 -36 0 -59 33 -59 83 0 83 53 124
100 77z m218 -59 c2 -42 -2 -79 -8 -85 -7 -7 -10 12 -10 61 0 40 -4 75 -10 78
-17 10 -11 27 8 23 14 -3 18 -16 20 -77z m-6612 37 c3 -11 3 -22 0 -25 -3 -4
-6 0 -6 7 0 7 -8 22 -17 32 -15 17 -15 18 0 13 9 -4 19 -16 23 -27z m200 -39
l2 -64 -7 55 c-3 30 -10 61 -15 69 -6 9 -5 12 5 9 10 -3 14 -24 15 -69z m6643
-6 l-2 -78 -7 60 c-4 33 -11 68 -15 78 -5 12 -2 17 9 17 13 0 16 -12 15 -77z
m237 -9 l2 -79 -8 72 c-4 39 -11 77 -15 83 -5 8 -3 11 6 8 10 -3 14 -26 15
-84z m201 69 c-8 -10 -17 -29 -20 -43 -4 -21 -4 -20 -6 7 -1 21 5 36 17 42 25
15 27 13 9 -6z m-1987 -57 c0 -78 -11 -126 -27 -126 -11 0 -14 15 -12 68 1 38
-1 74 -5 81 -13 20 1 40 23 34 18 -5 21 -13 21 -57z m-338 -27 c10 -5 20 -20
24 -34 8 -32 -22 -131 -42 -139 -25 -9 -62 -7 -69 4 -4 6 -14 10 -23 9 -38 -3
-52 2 -68 26 -14 22 -15 31 -4 73 21 75 34 85 104 77 33 -3 68 -11 78 -16z
m128 -18 c0 -26 -32 -157 -40 -165 -19 -19 -23 6 -11 71 8 46 9 69 2 76 -18
18 -12 27 19 27 17 0 30 -4 30 -9z m-456 -28 c-8 -50 -50 -163 -60 -163 -18 0
-18 20 2 86 9 31 13 62 10 70 -3 9 -4 20 -1 24 7 11 51 -4 49 -17z m2646 6 c0
-6 -4 -7 -10 -4 -5 3 -10 11 -10 16 0 6 5 7 10 4 6 -3 10 -11 10 -16z m-2555
-8 c2 -4 -5 -43 -16 -86 -10 -42 -19 -79 -19 -81 0 -2 -7 -4 -15 -4 -18 0 -18
9 -1 85 10 41 11 64 4 72 -5 7 -7 16 -4 22 6 10 43 4 51 -8z m-697 -27 c19
-13 22 -24 22 -77 0 -34 -4 -67 -8 -74 -13 -21 -56 -32 -78 -20 -29 16 -34 27
-34 90 0 84 43 120 98 81z m-1236 -43 c13 -11 35 -40 48 -64 23 -43 23 -46 7
-71 -13 -20 -26 -26 -51 -26 -29 0 -39 7 -70 49 -43 58 -45 82 -10 110 33 26
45 26 76 2z m-249 -48 c36 -81 43 -113 25 -113 -9 0 -29 29 -47 68 -30 65 -31
62 -15 -26 8 -40 -17 -72 -57 -72 -35 0 -51 16 -74 76 -16 42 -16 51 -4 73 12
20 25 27 61 31 26 3 50 9 54 13 17 17 33 3 57 -50z m-1401 20 c27 -24 26 -138
-1 -153 -54 -28 -91 5 -91 84 0 76 46 111 92 69z m1155 -10 c6 -8 17 -37 23
-64 15 -63 -3 -99 -50 -99 -21 0 -30 -5 -30 -16 0 -9 -7 -14 -17 -12 -11 2
-22 25 -34 73 l-17 70 -1 -67 c-1 -57 -4 -69 -23 -82 -55 -38 -97 -5 -105 81
-5 57 -4 62 20 77 13 9 40 16 60 14 21 -1 46 6 63 18 55 37 86 39 111 7z
m3158 3 c11 -17 15 -42 13 -82 -3 -52 -6 -60 -30 -74 -25 -13 -31 -13 -55 0
-25 14 -28 22 -31 79 -2 49 1 68 14 82 24 27 70 25 89 -5z m189 3 c23 -18 26
-28 26 -76 0 -63 -18 -93 -57 -93 -40 0 -63 33 -63 93 0 53 12 80 40 90 24 9
26 8 54 -14z m290 -1 c9 -12 16 -43 16 -68 0 -58 -22 -90 -60 -90 -38 0 -60
32 -60 90 0 25 7 56 16 68 20 30 68 30 88 0z m-5004 -68 c0 -32 -3 -66 -6 -75
-12 -29 -24 5 -24 67 0 31 -5 60 -11 64 -8 4 -7 9 2 15 25 15 39 -12 39 -71z
m556 55 c23 -36 15 -122 -15 -146 -21 -17 -54 -16 -78 4 -19 14 -17 117 3 145
22 31 69 30 90 -3z m174 5 c25 -25 27 -105 4 -138 -16 -24 -53 -29 -85 -12
-16 9 -19 22 -19 72 0 68 17 98 57 98 12 0 32 -9 43 -20z m4502 3 c13 -12 18
-31 18 -71 0 -62 -18 -92 -56 -92 -39 0 -54 26 -54 90 0 64 15 90 52 90 12 0
30 -7 40 -17z m-5955 -44 c1 -42 1 -43 -6 -9 -4 20 -11 42 -15 49 -6 9 -4 12
5 9 9 -3 15 -21 16 -49z m261 39 c7 -7 12 -39 12 -71 0 -61 -15 -86 -50 -86
-8 0 -3 7 13 15 24 13 27 20 27 67 0 55 -12 77 -42 77 -27 0 -41 -37 -35 -92
4 -30 2 -46 -3 -43 -13 8 -13 101 0 126 12 22 59 26 78 7z m220 -56 c2 -34 -2
-70 -7 -80 -8 -13 -10 1 -11 54 0 42 -5 75 -12 83 -11 10 -9 12 7 9 17 -3 20
-12 23 -66z m5692 -12 c0 -47 -4 -80 -10 -80 -6 0 -10 30 -10 70 0 40 -4 70
-10 70 -5 0 -10 5 -10 10 0 6 9 10 20 10 18 0 20 -7 20 -80z m239 10 c0 -38
-4 -72 -9 -75 -6 -4 -10 19 -10 57 0 37 -5 69 -12 76 -9 9 -7 12 9 12 19 0 21
-6 22 -70z m255 54 c9 -8 16 -27 15 -42 -1 -26 -1 -26 -11 5 -21 64 -78 50
-78 -18 0 -22 -4 -39 -10 -39 -16 0 -12 63 6 88 18 26 56 29 78 6z m234 4 c7
-7 12 -19 11 -27 0 -10 -4 -7 -9 7 -10 24 -48 30 -68 10 -8 -8 -12 -9 -12 -1
0 23 58 31 78 11z m-1814 -19 c24 -19 26 -25 20 -72 -8 -69 -27 -97 -64 -97
-41 0 -70 40 -64 88 10 70 15 83 37 92 33 13 42 12 71 -11z m-3310 -21 c13
-63 16 -147 6 -153 -18 -11 -22 0 -29 70 -4 38 -13 70 -20 75 -18 10 -5 30 19
30 12 0 21 -9 24 -22z m3189 15 c6 -9 -20 -163 -28 -171 -3 -3 -10 -1 -15 4
-7 7 -7 33 -1 75 5 37 5 65 0 67 -5 2 -9 10 -9 18 0 15 45 20 53 7z m-344 -47
c7 -8 21 -12 31 -9 44 12 50 0 34 -69 -19 -84 -32 -114 -45 -101 -7 7 -5 31 5
74 14 60 14 80 0 66 -3 -3 -10 -25 -15 -49 -6 -23 -17 -51 -26 -60 -29 -32
-93 -18 -105 22 -3 8 -13 -9 -22 -38 -22 -65 -49 -82 -95 -59 -19 9 -45 13
-69 10 -65 -9 -86 31 -61 120 5 20 21 44 34 53 21 13 27 13 59 0 21 -9 50 -13
70 -9 28 4 39 1 59 -19 l25 -25 12 41 c7 23 17 47 22 54 14 16 73 15 87 -2z
m219 -36 c26 -25 27 -40 7 -108 -17 -57 -44 -74 -84 -53 -35 19 -42 44 -30
100 16 76 63 102 107 61z m1787 -40 c8 0 21 10 29 22 12 16 16 18 16 7 0 -9
-11 -22 -25 -29 -21 -11 -28 -10 -50 4 -14 9 -23 22 -19 27 3 6 12 2 21 -10 8
-12 20 -21 28 -21z m200 30 c3 -5 1 -10 -4 -10 -6 0 -11 5 -11 10 0 6 2 10 4
10 3 0 8 -4 11 -10z m76 -13 c-10 -9 -11 -8 -5 6 3 10 9 15 12 12 3 -3 0 -11
-7 -18z m-4118 -43 c31 -25 57 -52 57 -60 0 -22 -15 -17 -69 26 -28 22 -60 40
-71 40 -22 0 -23 1 -14 24 10 26 36 18 97 -30z m-352 -67 c39 -92 43 -107 26
-107 -9 0 -27 27 -43 64 -15 36 -32 64 -38 63 -5 -1 -11 5 -13 15 -4 14 4 20
37 27 3 0 17 -27 31 -62z m-108 34 c18 -7 30 -24 42 -61 19 -58 14 -94 -16
-111 -37 -19 -69 -3 -91 48 -26 60 -26 92 2 115 26 21 30 21 63 9z m-1383 -31
c15 -15 20 -33 20 -72 0 -78 -37 -108 -88 -72 -18 13 -22 25 -22 74 0 49 4 61
22 74 30 21 44 20 68 -4z m1199 1 c21 -21 37 -111 24 -135 -4 -8 -34 -29 -65
-45 -49 -27 -61 -29 -83 -19 -25 11 -47 65 -47 116 -1 23 28 62 44 62 6 0 21
9 35 20 32 25 67 26 92 1z m3095 4 c15 -11 21 -31 24 -73 4 -55 2 -60 -23 -80
-34 -27 -49 -28 -75 -2 -15 15 -20 33 -20 75 0 81 44 118 94 80z m478 -2 c24
-22 25 -118 1 -145 -20 -22 -51 -23 -75 -1 -24 22 -25 118 -1 145 20 22 51 23
75 1z m-4478 -77 c-6 -68 -21 -121 -25 -86 -1 8 0 43 1 76 1 39 -3 64 -10 69
-16 10 7 25 27 18 10 -4 11 -22 7 -77z m194 -1 c4 -101 -13 -120 -22 -24 -3
40 -11 78 -17 85 -7 8 -6 14 3 17 27 11 33 -2 36 -78z m4021 71 c7 -8 15 -39
18 -69 5 -47 2 -58 -16 -76 -26 -26 -55 -27 -81 -1 -26 26 -28 120 -4 144 19
20 68 21 83 2z m-5214 -5 c3 -5 1 -12 -4 -15 -5 -3 -11 1 -15 9 -6 16 9 21 19
6z m265 -10 c5 -11 10 -42 10 -70 0 -43 -4 -53 -25 -67 -14 -9 -28 -14 -32
-10 -3 3 -1 6 5 6 36 0 57 84 32 131 -12 21 -40 25 -58 7 -15 -15 -16 -92 -2
-119 6 -11 7 -19 1 -19 -5 0 -12 7 -15 16 -11 28 -6 120 6 132 19 19 66 15 78
-7z m209 -63 l-2 -83 -6 70 c-4 39 -10 76 -15 83 -4 7 -1 12 8 12 13 0 16 -14
15 -82z m5221 2 c0 -47 -4 -80 -10 -80 -6 0 -10 29 -10 68 0 40 -5 73 -12 80
-9 9 -7 12 10 12 21 0 22 -4 22 -80z m238 11 c2 -36 -2 -69 -7 -74 -8 -8 -11
9 -11 54 0 38 -5 70 -12 78 -11 10 -9 12 7 9 17 -3 20 -12 23 -67z m260 57 c7
-7 12 -23 12 -37 -1 -25 -2 -24 -15 7 -15 33 -41 42 -63 20 -18 -18 -15 -103
4 -122 8 -9 19 -16 24 -16 12 0 40 29 40 42 0 6 3 9 6 6 9 -9 -13 -45 -32 -52
-9 -4 -27 1 -40 9 -21 13 -24 24 -24 73 0 64 11 82 50 82 14 0 31 -5 38 -12z
m181 -1 c-9 -7 -18 -19 -22 -27 -5 -13 -6 -13 -6 1 -1 17 18 39 34 39 5 0 3
-6 -6 -13z m51 -2 c6 -8 10 -20 7 -27 -4 -8 -6 -7 -6 4 -1 9 -9 22 -18 27 -10
6 -13 11 -7 11 6 0 17 -7 24 -15z m-6632 -20 c-3 -3 -9 2 -12 12 -6 14 -5 15
5 6 7 -7 10 -15 7 -18z m6852 15 c0 -5 -2 -10 -4 -10 -3 0 -8 5 -11 10 -3 6
-1 10 4 10 6 0 11 -4 11 -10z m-1934 -35 c18 -27 3 -123 -23 -143 -45 -33 -94
0 -92 62 1 61 12 89 38 102 29 15 59 7 77 -21z m99 -37 c-8 -87 -11 -98 -26
-98 -9 0 -10 20 -6 70 3 39 2 72 -4 75 -18 12 -9 25 17 25 l25 0 -6 -72z
m-3244 -18 c3 -41 3 -81 1 -87 -10 -30 -20 -8 -27 57 -4 39 -13 74 -21 81 -18
15 -7 31 19 27 20 -3 23 -11 28 -78z m140 45 c11 -48 10 -145 -1 -145 -10 0
-15 17 -25 90 -3 24 -11 50 -16 57 -6 6 -8 17 -4 23 12 20 40 5 46 -25z m1039
15 c12 0 70 -94 70 -115 0 -51 -70 -73 -107 -32 -25 27 -53 80 -53 101 0 20
50 58 68 51 7 -3 17 -5 22 -5z m1550 -20 c12 -8 11 -19 -9 -87 -25 -87 -26
-88 -40 -79 -6 4 -2 31 10 73 12 44 15 70 9 78 -17 21 4 32 30 15z m107 -24
c4 -3 -35 -158 -41 -164 -15 -14 -18 13 -7 67 6 33 9 72 5 86 -6 25 -5 27 17
20 13 -4 25 -8 26 -9z m-719 -126 c6 -17 -21 -11 -70 15 -26 14 -59 25 -73 25
-26 0 -33 18 -13 38 8 8 28 1 82 -28 39 -22 72 -44 74 -50z m2747 70 c-3 -5
-12 -10 -18 -10 -7 0 -6 4 3 10 19 12 23 12 15 0z"/>
<path d="M4814 4067 c-7 -18 16 -65 43 -89 16 -15 22 -16 36 -5 16 11 16 15
-5 57 -24 47 -62 66 -74 37z"/>
<path d="M2295 3993 c-13 -72 -10 -85 18 -81 16 2 26 14 36 46 16 52 10 72
-23 72 -21 0 -26 -6 -31 -37z"/>
<path d="M5452 4028 c-7 -7 -12 -33 -12 -59 0 -49 18 -76 45 -65 30 11 16 136
-15 136 -3 0 -11 -5 -18 -12z"/>
<path d="M917 4004 c-14 -15 -8 -111 9 -125 30 -25 49 1 49 67 0 56 -1 59 -25
62 -14 2 -29 0 -33 -4z"/>
<path d="M1637 4003 c-4 -3 -7 -32 -7 -64 0 -60 10 -74 43 -57 20 10 24 97 5
116 -13 13 -31 16 -41 5z"/>
<path d="M6137 4003 c-4 -3 -7 -30 -7 -59 0 -59 19 -81 53 -63 17 10 24 79 11
113 -6 16 -45 22 -57 9z"/>
<path d="M2754 3875 c-18 -44 -18 -81 0 -88 33 -13 75 95 45 114 -23 14 -29
11 -45 -26z"/>
<path d="M3277 3903 c-23 -23 34 -98 69 -91 29 5 26 22 -10 61 -33 37 -46 43
-59 30z"/>
<path d="M4520 3883 c0 -28 33 -93 47 -93 5 0 15 4 23 10 12 8 13 14 1 47 -17
49 -29 63 -52 63 -14 0 -19 -7 -19 -27z"/>
<path d="M4651 3866 c-8 -10 -8 -22 0 -47 16 -45 27 -59 50 -59 26 0 25 45 -1
88 -22 35 -32 39 -49 18z"/>
<path d="M4631 3672 c-13 -25 27 -97 54 -97 14 0 19 6 17 20 -10 66 -52 112
-71 77z"/>
<path d="M4745 3641 c-9 -15 6 -91 22 -106 24 -25 46 -7 40 33 -10 57 -45 99
-62 73z"/>
<path d="M4742 3447 c-8 -9 -6 -24 8 -54 20 -46 31 -56 54 -47 21 8 20 27 -4
74 -21 41 -40 50 -58 27z"/>
<path d="M2394 3812 c-7 -4 -17 -27 -24 -51 -10 -37 -9 -46 4 -60 25 -25 50 7
50 65 1 47 -8 61 -30 46z"/>
<path d="M2256 3771 c-4 -5 -9 -30 -12 -55 -6 -37 -4 -47 10 -52 25 -10 36 6
43 64 5 48 4 52 -15 52 -11 0 -23 -4 -26 -9z"/>
<path d="M1930 3750 c-6 -12 -10 -38 -8 -58 3 -32 6 -37 28 -37 22 0 26 5 30
46 3 26 4 52 2 58 -6 18 -41 12 -52 -9z"/>
<path d="M682 3748 c-17 -17 -15 -103 3 -118 25 -20 49 -8 57 31 14 70 -23
124 -60 87z"/>
<path d="M1133 3753 c-9 -3 -13 -26 -13 -64 0 -60 0 -60 28 -57 26 3 27 5 27
63 0 60 -9 72 -42 58z"/>
<path d="M1434 3746 c-3 -7 -4 -35 -2 -62 3 -45 5 -49 28 -49 23 0 25 4 28 48
3 50 -9 77 -35 77 -7 0 -16 -6 -19 -14z"/>
<path d="M1642 3748 c-7 -7 -12 -36 -12 -66 0 -52 1 -53 28 -50 25 3 27 7 30
55 2 42 0 54 -16 62 -13 7 -22 7 -30 -1z"/>
<path d="M5950 3745 c-10 -12 -11 -28 -4 -63 8 -41 12 -47 34 -47 23 0 25 4
28 48 4 67 -27 100 -58 62z"/>
<path d="M6142 3748 c-7 -7 -12 -33 -12 -60 0 -36 4 -50 19 -58 29 -15 51 12
51 64 0 41 -13 66 -35 66 -6 0 -16 -5 -23 -12z"/>
<path d="M6612 3748 c-26 -26 -9 -128 23 -128 29 0 45 30 40 76 -2 25 -7 49
-10 55 -9 13 -39 11 -53 -3z"/>
<path d="M2760 3656 c-21 -50 -18 -76 10 -76 20 0 54 67 48 96 -7 38 -37 28
-58 -20z"/>
<path d="M3650 3581 c0 -20 56 -71 77 -71 6 0 14 8 18 17 4 13 -3 26 -25 45
-36 33 -70 37 -70 9z"/>
<path d="M1897 3468 c-7 -59 3 -79 31 -62 12 8 17 25 17 60 0 42 -3 49 -21 52
-19 3 -22 -3 -27 -50z"/>
<path d="M1823 3502 c-6 -4 -14 -28 -18 -53 -5 -36 -3 -48 10 -59 26 -21 47
13 43 69 -3 45 -13 57 -35 43z"/>
<path d="M5462 3473 c3 -50 6 -58 23 -58 18 0 20 7 20 55 0 50 -2 55 -23 58
-22 3 -23 1 -20 -55z"/>
<path d="M5580 3446 c0 -37 4 -56 14 -59 23 -9 36 15 36 65 0 45 -2 48 -25 48
-24 0 -25 -3 -25 -54z"/>
<path d="M680 3484 c-22 -57 0 -124 37 -110 8 3 17 6 19 6 2 0 4 27 4 59 0 44
-4 60 -16 65 -27 10 -34 7 -44 -20z"/>
<path d="M920 3491 c-11 -22 -13 -55 -4 -89 5 -18 13 -22 33 -20 24 3 26 8 29
51 4 68 -32 105 -58 58z"/>
<path d="M1125 3496 c-12 -9 -15 -24 -13 -61 3 -46 5 -50 28 -50 23 0 25 4 28
56 3 61 -11 79 -43 55z"/>
<path d="M1632 3443 c2 -47 6 -58 22 -61 23 -5 36 14 36 55 0 47 -9 63 -37 63
-23 0 -24 -2 -21 -57z"/>
<path d="M5973 3503 c-15 -5 -18 -90 -4 -111 5 -8 17 -12 27 -10 15 2 20 14
22 51 4 61 -11 84 -45 70z"/>
<path d="M2622 3417 c-14 -16 -30 -79 -25 -94 8 -23 43 -14 53 12 22 58 22 73
2 84 -15 8 -23 7 -30 -2z"/>
<path d="M2552 3178 c-14 -17 -33 -89 -26 -100 3 -4 13 -8 23 -8 13 0 22 13
31 45 17 60 1 97 -28 63z"/>
<path d="M2533 2973 c9 -9 19 -14 23 -11 10 10 -6 28 -24 28 -15 0 -15 -1 1
-17z"/>
<path d="M2486 2918 c-3 -14 0 -29 9 -37 12 -13 15 -11 23 10 5 13 7 30 5 37
-8 20 -30 14 -37 -10z"/>
<path d="M2455 2850 c-3 -5 1 -13 10 -16 22 -9 29 1 11 15 -10 8 -16 9 -21 1z"/>
<path d="M2340 2510 c0 -5 12 -10 26 -10 14 0 23 4 19 10 -3 6 -15 10 -26 10
-10 0 -19 -4 -19 -10z"/>
<path d="M2336 2449 c-21 -30 -20 -39 3 -39 22 0 38 37 23 52 -6 6 -15 2 -26
-13z"/>
<path d="M2315 2360 c3 -5 15 -10 26 -10 10 0 19 5 19 10 0 6 -12 10 -26 10
-14 0 -23 -4 -19 -10z"/>
<path d="M4212 3453 c-29 -6 -49 -41 -27 -49 17 -7 73 2 94 15 8 5 11 16 8 25
-6 15 -27 18 -75 9z"/>
<path d="M2373 3368 c-16 -20 -35 -87 -28 -98 12 -20 43 -10 53 18 21 56 22
65 11 78 -14 17 -24 18 -36 2z"/>
<path d="M1926 3304 c-3 -9 -6 -36 -6 -61 0 -37 3 -44 18 -41 19 4 48 79 38
103 -7 20 -42 19 -50 -1z"/>
<path d="M1806 3245 c-21 -22 -22 -103 -1 -111 26 -10 45 16 45 61 0 51 -20
74 -44 50z"/>
<path d="M2145 3256 c-8 -41 -3 -78 10 -83 21 -6 34 14 41 65 6 51 6 52 -19
52 -22 0 -27 -6 -32 -34z"/>
<path d="M6134 3214 c-7 -40 8 -84 30 -84 23 0 32 24 28 74 -4 41 -7 46 -28
46 -19 0 -24 -7 -30 -36z"/>
<path d="M207 3253 c-4 -3 -7 -33 -7 -65 0 -45 4 -60 16 -65 27 -10 49 11 52
52 5 59 -5 85 -32 85 -12 0 -26 -3 -29 -7z"/>
<path d="M934 3252 c-12 -7 -17 -41 -15 -94 1 -23 6 -28 26 -28 30 0 39 28 28
84 -9 41 -20 51 -39 38z"/>
<path d="M1104 3237 c-3 -8 -4 -34 -2 -58 2 -37 7 -45 25 -47 26 -4 37 24 31
79 -2 26 -8 35 -26 37 -12 2 -24 -3 -28 -11z"/>
<path d="M6386 3244 c-12 -12 -16 -30 -14 -63 3 -42 5 -46 31 -49 27 -3 27 -2
27 51 0 64 -18 88 -44 61z"/>
<path d="M6852 3248 c-18 -18 -15 -103 4 -119 27 -22 49 1 52 55 4 64 -24 96
-56 64z"/>
<path d="M4960 2980 c0 -33 6 -36 34 -15 16 12 17 17 6 30 -21 25 -40 18 -40
-15z"/>
<path d="M5010 2920 c0 -13 5 -20 13 -17 6 2 12 10 12 17 0 7 -6 15 -12 18 -8
2 -13 -5 -13 -18z"/>
<path d="M2290 3121 c-15 -30 -13 -101 4 -101 18 0 49 76 41 101 -8 25 -31 24
-45 0z"/>
<path d="M2201 3076 c-6 -7 -14 -34 -17 -60 -7 -46 -6 -48 17 -44 22 3 24 8
27 61 3 56 -5 70 -27 43z"/>
<path d="M2204 2865 c-18 -45 -15 -79 9 -83 20 -4 50 56 45 91 -5 38 -37 33
-54 -8z"/>
<path d="M1860 3010 c0 -5 5 -10 10 -10 6 0 10 5 10 10 0 6 -4 10 -10 10 -5 0
-10 -4 -10 -10z"/>
<path d="M1780 2940 c0 -27 3 -50 8 -50 4 0 7 23 7 50 0 28 -3 50 -7 50 -5 0
-8 -22 -8 -50z"/>
<path d="M933 3003 c-21 -8 -17 -112 3 -120 38 -14 61 79 28 111 -8 9 -16 16
-17 15 -1 0 -8 -3 -14 -6z"/>
<path d="M1471 2997 c-18 -18 -14 -106 5 -114 29 -11 47 21 40 70 -7 46 -25
64 -45 44z"/>
<path d="M453 3003 c-18 -7 -17 -107 1 -122 35 -29 68 37 49 96 -10 28 -26 37
-50 26z"/>
<path d="M1634 2986 c-3 -7 -4 -33 -2 -57 2 -37 7 -45 25 -47 27 -4 39 30 29
83 -5 26 -12 35 -27 35 -11 0 -22 -6 -25 -14z"/>
<path d="M6622 3001 c-9 -5 -12 -25 -10 -62 3 -50 5 -54 28 -54 23 0 25 4 28
48 4 61 -14 89 -46 68z"/>
<path d="M6852 2998 c-18 -18 -15 -103 4 -119 25 -21 49 1 52 49 5 65 -24 102
-56 70z"/>
<path d="M4014 2924 c-9 -35 6 -78 29 -82 16 -3 18 3 15 50 -2 40 -7 54 -20
56 -12 2 -19 -5 -24 -24z"/>
<path d="M212 2748 c-18 -18 -15 -103 4 -119 27 -22 49 1 52 55 4 64 -24 96
-56 64z"/>
<path d="M451 2746 c-7 -8 -11 -36 -9 -63 3 -44 5 -48 31 -51 25 -3 27 -1 28
35 2 56 -2 77 -15 85 -16 11 -22 10 -35 -6z"/>
<path d="M687 2744 c-4 -4 -7 -29 -7 -55 0 -37 4 -51 19 -58 28 -16 43 9 39
66 -2 39 -7 49 -23 51 -12 2 -24 0 -28 -4z"/>
<path d="M5147 2483 c-4 -3 -7 -30 -7 -60 0 -45 3 -53 19 -53 15 0 20 10 26
50 4 27 4 54 0 60 -7 11 -28 13 -38 3z"/>
<path d="M5221 1823 c-13 -47 -14 -73 -1 -73 9 0 30 62 30 93 0 31 -19 18 -29
-20z"/>
<path d="M5305 1779 c-9 -40 1 -48 27 -21 18 17 19 23 8 36 -19 23 -28 20 -35
-15z"/>
<path d="M5584 1736 c-3 -8 -4 -31 -2 -52 2 -31 7 -39 23 -39 16 0 21 8 23 44
2 28 -1 47 -10 52 -19 12 -28 11 -34 -5z"/>
<path d="M5371 1634 c0 -11 3 -14 6 -6 3 7 2 16 -1 19 -3 4 -6 -2 -5 -13z"/>
<path d="M5180 1573 c-6 -26 -14 -54 -16 -60 -2 -7 5 -13 16 -13 32 0 54 107
24 117 -6 2 -17 -18 -24 -44z"/>
<path d="M5443 1478 c-6 -13 -9 -34 -7 -48 1 -14 3 -28 3 -32 1 -5 10 -8 21
-8 18 0 20 7 20 55 0 59 -18 75 -37 33z"/>
<path d="M5222 1362 c-7 -5 -15 -32 -19 -60 -5 -49 -4 -52 16 -52 25 0 43 39
39 84 -3 31 -15 41 -36 28z"/>
<path d="M5353 1158 c-2 -37 1 -58 7 -52 12 13 17 106 5 110 -6 2 -11 -22 -12
-58z"/>
<path d="M5278 1194 c-5 -4 -8 -19 -8 -33 0 -18 3 -22 11 -14 6 6 9 21 7 33
-1 12 -6 18 -10 14z"/>
<path d="M5161 1083 c-15 -53 -14 -73 5 -80 25 -9 45 26 42 72 -4 56 -33 61
-47 8z"/>
<path d="M5270 1105 c0 -8 4 -15 10 -15 5 0 7 7 4 15 -4 8 -8 15 -10 15 -2 0
-4 -7 -4 -15z"/>
<path d="M5230 925 c-15 -39 -12 -75 6 -82 23 -9 33 7 36 57 2 36 0 45 -14 48
-12 2 -21 -6 -28 -23z"/>
<path d="M4927 856 c-13 -37 -13 -47 -2 -63 12 -17 14 -16 20 12 4 17 11 45
15 63 13 51 -15 41 -33 -12z"/>
<path d="M5026 879 c-14 -41 -27 -102 -22 -106 3 -3 12 -3 19 0 18 7 33 95 18
110 -7 7 -12 6 -15 -4z"/>
<path d="M5120 863 c-1 -4 -5 -27 -9 -50 -6 -33 -5 -46 6 -55 22 -18 41 9 45
62 3 40 1 45 -19 48 -13 2 -23 0 -23 -5z"/>
<path d="M5202 697 c-6 -7 -13 -33 -14 -58 -3 -39 0 -44 19 -47 18 -3 23 3 28
31 12 65 -6 106 -33 74z"/>
<path d="M5001 1788 c0 -9 -4 -25 -7 -35 -5 -17 -5 -17 6 0 6 10 9 25 7 35 -4
15 -5 15 -6 0z"/>
<path d="M2136 1518 c3 -4 12 -8 20 -8 8 0 14 4 14 8 0 4 -9 8 -19 8 -11 0
-17 -4 -15 -8z"/>
<path d="M2197 1370 c3 -11 9 -17 15 -14 5 3 4 12 -3 20 -16 19 -18 18 -12 -6z"/>
<path d="M2255 1210 c-3 -5 -1 -10 4 -10 6 0 11 5 11 10 0 6 -2 10 -4 10 -3 0
-8 -4 -11 -10z"/>
<path d="M2280 1190 c0 -6 -5 -8 -11 -4 -15 9 -3 -44 13 -64 17 -20 31 2 23
37 -6 30 -25 53 -25 31z m14 -45 c3 -8 1 -15 -4 -15 -6 0 -10 7 -10 15 0 8 2
15 4 15 2 0 6 -7 10 -15z"/>
<path d="M2380 1111 c0 -22 57 -74 74 -68 22 7 17 35 -11 61 -33 31 -63 34
-63 7z"/>
<path d="M1634 1476 c-3 -13 -4 -38 -2 -57 2 -26 8 -35 25 -37 27 -4 39 30 29
83 -8 42 -42 50 -52 11z"/>
<path d="M4320 1380 c0 -14 11 -22 39 -31 44 -13 71 -7 71 15 0 15 -49 36 -86
36 -17 0 -24 -6 -24 -20z"/>
<path d="M4816 1274 c-7 -18 -8 -60 -2 -53 7 6 17 69 12 69 -2 0 -7 -7 -10
-16z"/>
<path d="M4905 1250 c-4 -12 -5 -24 -2 -27 3 -2 8 5 12 17 4 12 5 24 2 27 -3
2 -8 -5 -12 -17z"/>
<path d="M5916 1245 c-9 -24 -7 -78 3 -93 5 -8 17 -12 27 -10 16 3 19 12 19
58 0 48 -3 55 -21 58 -13 2 -24 -4 -28 -13z"/>
<path d="M1523 1202 c-27 -29 -30 -60 -7 -69 24 -9 36 10 32 54 l-3 39 -22
-24z"/>
<path d="M6846 1235 c-12 -32 -6 -92 10 -106 29 -24 49 1 49 62 0 51 -2 54
-26 57 -17 2 -29 -3 -33 -13z"/>
<path d="M7093 1253 c-21 -8 -17 -122 3 -130 30 -11 49 11 52 61 4 62 -15 86
-55 69z"/>
<path d="M687 1243 c-4 -3 -7 -30 -7 -60 0 -57 16 -77 45 -53 18 15 20 91 3
108 -13 13 -31 16 -41 5z"/>
<path d="M927 1243 c-6 -10 -10 -49 -8 -85 1 -23 6 -28 25 -28 35 0 49 57 26
101 -11 19 -35 26 -43 12z"/>
<path d="M2051 1183 c-20 -4 -22 -9 -17 -36 7 -35 22 -54 33 -44 5 6 15 91 9
86 0 -1 -12 -4 -25 -6z"/>
<path d="M3116 1194 c-9 -25 2 -34 43 -34 41 0 78 21 67 38 -11 19 -103 15
-110 -4z"/>
<path d="M3380 1192 c0 -6 -8 -12 -17 -15 -13 -3 -8 -8 19 -20 43 -20 74 -22
84 -6 3 6 0 17 -7 24 -18 17 -79 30 -79 17z"/>
<path d="M2666 1151 c-64 -12 -27 -55 42 -49 29 2 37 7 37 22 0 23 -36 35 -79
27z"/>
<path d="M3580 1086 c0 -20 59 -78 77 -74 26 5 26 23 -2 57 -28 32 -75 43 -75
17z"/>
<path d="M4767 1084 c-3 -3 -3 -12 -1 -18 3 -7 -2 -19 -11 -26 -20 -16 -20
-60 0 -60 8 0 14 3 13 8 -1 4 2 26 6 50 8 42 5 58 -7 46z"/>
<path d="M4847 1043 c-10 -9 -9 -23 2 -23 5 0 11 7 15 15 5 15 -5 20 -17 8z"/>
<path d="M4837 1004 c-4 -4 -7 -14 -7 -23 0 -11 3 -12 11 -4 6 6 10 16 7 23
-2 6 -7 8 -11 4z"/>
<path d="M5914 997 c-3 -8 -4 -34 -2 -58 2 -37 7 -45 25 -47 26 -4 37 24 31
79 -2 26 -8 35 -26 37 -12 2 -24 -3 -28 -11z"/>
<path d="M918 953 c-5 -55 6 -86 30 -81 23 4 36 48 28 91 -6 30 -11 37 -30 37
-21 0 -24 -6 -28 -47z"/>
<path d="M2283 965 c-9 -26 20 -90 42 -90 15 0 19 6 17 25 -6 63 -43 104 -59
65z"/>
<path d="M2560 975 c-9 -11 -7 -21 9 -43 34 -48 50 -58 66 -41 13 13 12 19
-10 51 -28 42 -49 52 -65 33z"/>
<path d="M6376 985 c-9 -24 -7 -88 3 -103 5 -8 17 -12 27 -10 16 3 19 12 19
63 0 54 -2 60 -21 63 -13 2 -24 -4 -28 -13z"/>
<path d="M6622 998 c-15 -15 -16 -114 -2 -123 6 -3 19 -3 30 0 34 11 25 135
-10 135 -3 0 -11 -5 -18 -12z"/>
<path d="M2152 935 c-1 -11 3 -38 7 -60 l9 -40 0 35 c0 19 -4 46 -8 60 -6 20
-8 21 -8 5z"/>
<path d="M4680 821 c-15 -29 -13 -81 4 -81 7 0 19 7 26 15 7 8 9 15 4 15 -4 0
-3 5 4 12 7 7 12 22 12 35 0 29 -35 32 -50 4z"/>
<path d="M1117 753 c-14 -13 -7 -100 8 -113 33 -27 61 47 39 104 -6 16 -35 22
-47 9z"/>
<path d="M2444 745 c-11 -27 19 -90 44 -93 27 -4 28 18 4 67 -19 39 -39 50
-48 26z"/>
<path d="M5616 734 c-18 -48 5 -111 37 -98 12 4 17 17 17 44 0 51 -8 70 -30
70 -10 0 -21 -7 -24 -16z"/>
<path d="M676 715 c-4 -20 -4 -50 -1 -66 6 -25 11 -30 33 -27 26 3 27 5 27 63
0 57 -1 60 -26 63 -23 3 -27 -1 -33 -33z"/>
<path d="M1637 743 c-4 -3 -7 -30 -7 -59 0 -40 4 -53 17 -58 24 -10 43 19 43
64 0 47 -30 77 -53 53z"/>
<path d="M6374 736 c-3 -7 -4 -35 -2 -62 3 -45 5 -49 28 -49 22 0 26 5 30 47
3 26 2 55 -3 63 -10 19 -46 20 -53 1z"/>
<path d="M4870 644 c-20 -23 -19 -98 1 -102 11 -2 19 11 27 49 15 65 2 90 -28
53z"/>
<path d="M4956 628 c-28 -86 -28 -90 -15 -99 22 -13 42 16 43 62 1 40 -19 67
-28 37z"/>
<path d="M4010 551 c-17 -32 -12 -88 7 -95 23 -9 43 19 43 59 0 49 -31 71 -50
36z"/>
<path d="M2774 515 c-11 -27 47 -101 71 -91 22 8 18 35 -11 73 -27 35 -51 43
-60 18z"/>
<path d="M2451 501 c-12 -8 -12 -16 -1 -54 12 -44 31 -63 51 -51 14 8 11 42
-7 80 -17 36 -21 39 -43 25z"/>
<path d="M1126 504 c-32 -31 -14 -124 23 -124 23 0 31 19 31 70 0 32 -19 70
-35 70 -2 0 -11 -7 -19 -16z"/>
<path d="M2270 471 c0 -46 20 -92 39 -89 20 4 21 79 1 102 -20 26 -40 19 -40
-13z"/>
<path d="M2126 453 c-3 -4 -6 -27 -6 -53 0 -65 31 -94 50 -46 16 43 -19 123
-44 99z"/>
<path d="M5432 498 c-17 -17 -15 -93 3 -108 12 -10 18 -10 30 0 27 23 15 120
-15 120 -3 0 -11 -5 -18 -12z"/>
<path d="M5627 494 c-10 -10 -9 -86 2 -102 5 -8 17 -12 27 -10 16 3 19 12 19
58 0 48 -3 55 -20 58 -12 2 -24 0 -28 -4z"/>
<path d="M5907 504 c-4 -4 -7 -31 -7 -60 0 -39 4 -53 16 -58 30 -11 45 13 42
68 -3 43 -6 51 -23 54 -12 2 -24 0 -28 -4z"/>
<path d="M1457 492 c-13 -20 -10 -104 3 -112 32 -20 54 17 48 81 -2 26 -8 35
-25 37 -11 2 -24 -1 -26 -6z"/>
<path d="M1637 493 c-4 -3 -7 -30 -7 -60 0 -57 16 -77 45 -53 15 13 20 74 9
104 -6 16 -35 22 -47 9z"/>
<path d="M6145 494 c-20 -21 -20 -97 1 -115 23 -19 48 1 52 41 7 67 -21 106
-53 74z"/>
<path d="M5266 439 c-10 -51 -7 -79 9 -85 28 -11 46 16 43 65 -2 38 -7 47 -24
49 -17 2 -23 -4 -28 -29z"/>
<path d="M4794 385 c-20 -48 -15 -79 13 -83 39 -6 60 109 20 116 -12 3 -22 -7
-33 -33z"/>
<path d="M4546 355 c-20 -20 -32 -83 -18 -97 19 -19 41 0 52 43 17 62 0 88
-34 54z"/>
<path d="M4663 352 c-14 -9 -33 -80 -26 -98 10 -26 40 -16 52 17 20 59 7 101
-26 81z"/>
<path d="M5031 381 c-7 -5 -16 -32 -19 -60 -4 -41 -1 -52 12 -57 10 -4 22 -2
27 3 17 17 29 85 18 105 -11 20 -18 22 -38 9z"/>
<path d="M2524 255 c-8 -19 13 -80 32 -96 12 -10 18 -9 31 3 14 15 14 20 -2
62 -18 47 -49 63 -61 31z"/>
<path d="M1132 258 c-17 -17 -15 -103 3 -118 8 -6 23 -9 35 -5 16 5 20 15 20
51 0 71 -27 103 -58 72z"/>
<path d="M2335 250 c-11 -18 15 -110 31 -110 23 0 27 26 13 72 -14 42 -32 58
-44 38z"/>
<path d="M2255 210 c-11 -17 4 -97 20 -110 12 -10 18 -10 29 -1 12 10 12 19
-3 63 -18 52 -33 68 -46 48z"/>
<path d="M5432 251 c-9 -5 -12 -25 -10 -62 3 -50 5 -54 28 -54 23 0 25 4 28
48 4 61 -14 89 -46 68z"/>
<path d="M5905 254 c-21 -22 -17 -103 7 -117 28 -18 48 9 48 62 0 64 -23 87
-55 55z"/>
<path d="M5642 251 c-9 -5 -12 -25 -10 -62 3 -50 5 -54 28 -54 23 0 25 4 28
48 4 61 -14 89 -46 68z"/>
<path d="M5119 183 c-16 -43 -8 -87 18 -91 14 -2 23 3 26 15 21 76 17 103 -14
103 -12 0 -24 -11 -30 -27z"/>
<path d="M3180 168 c0 -34 36 -88 59 -88 32 0 34 17 9 63 -27 49 -68 64 -68
25z"/>
<path d="M1145 4130 c3 -5 15 -10 25 -10 10 0 22 5 25 10 4 6 -7 10 -25 10
-18 0 -29 -4 -25 -10z"/>
<path d="M1415 4130 c3 -5 12 -10 20 -10 8 0 17 5 20 10 4 6 -5 10 -20 10 -15
0 -24 -4 -20 -10z"/>
<path d="M2926 4118 c-12 -48 -7 -68 18 -68 17 0 27 8 34 28 5 15 13 35 17 45
6 14 2 17 -28 17 -28 0 -36 -5 -41 -22z"/>
<path d="M6145 4130 c3 -5 12 -10 20 -10 8 0 17 5 20 10 4 6 -5 10 -20 10 -15
0 -24 -4 -20 -10z"/>
<path d="M6370 4130 c0 -5 14 -10 30 -10 17 0 30 5 30 10 0 6 -13 10 -30 10
-16 0 -30 -4 -30 -10z"/>
<path d="M5020 4035 c-9 -11 -8 -24 6 -61 20 -52 38 -64 61 -41 14 14 14 20
-2 59 -23 57 -42 71 -65 43z"/>
<path d="M5183 3803 c-11 -27 19 -98 43 -101 29 -4 34 14 17 71 -10 36 -18 47
-34 47 -11 0 -22 -7 -26 -17z"/>
<path d="M5331 3791 c-10 -7 -12 -21 -8 -56 8 -57 13 -65 37 -65 23 0 30 20
23 67 -9 56 -24 72 -52 54z"/>
<path d="M5457 3774 c-4 -4 -7 -31 -7 -60 0 -39 4 -53 16 -58 30 -11 45 13 42
68 -3 43 -6 51 -23 54 -12 2 -24 0 -28 -4z"/>
<path d="M5104 3675 c-3 -8 6 -36 21 -61 25 -42 28 -45 43 -30 15 14 14 20 -6
61 -22 45 -48 58 -58 30z"/>
<path d="M5280 3577 c0 -18 39 -107 44 -99 7 12 -23 102 -35 102 -5 0 -9 -1
-9 -3z"/>
<path d="M5200 3546 c0 -20 11 -46 19 -46 4 0 6 14 3 30 -4 30 -22 43 -22 16z"/>
<path d="M5252 3395 c11 -24 28 -34 28 -16 0 21 -13 41 -26 41 -11 0 -11 -5
-2 -25z"/>
<path d="M5327 3323 c-8 -13 7 -58 22 -68 14 -8 13 13 -3 50 -7 18 -15 25 -19
18z"/>
<path d="M5461 3263 c1 -10 5 -31 9 -48 7 -27 8 -25 9 18 0 26 -3 47 -9 47 -5
0 -9 -8 -9 -17z"/>
<path d="M5564 3226 c-11 -43 -1 -81 21 -81 17 0 20 8 23 53 3 47 1 52 -17 52
-13 0 -23 -8 -27 -24z"/>
<path d="M5321 3180 c-1 -8 8 -26 19 -40 15 -19 20 -21 20 -9 0 9 -9 27 -20
40 -13 17 -19 19 -19 9z"/>
<path d="M0 2940 c0 -80 18 -93 34 -26 10 40 0 87 -21 94 -10 3 -13 -15 -13
-68z"/>
<path d="M0 2690 c0 -53 3 -71 12 -68 27 9 27 127 1 136 -10 3 -13 -15 -13
-68z"/>
<path d="M1840 942 c0 -18 -4 -32 -10 -32 -16 0 -11 -47 6 -54 27 -10 37 5 31
51 -6 56 -27 82 -27 35z"/>
<path d="M1797 803 c-4 -3 -7 -22 -7 -40 l0 -34 25 18 c29 22 34 63 7 63 -10
0 -22 -3 -25 -7z"/>
<path d="M1973 693 c-13 -5 -18 -60 -7 -87 8 -21 42 -20 46 1 2 10 1 34 0 55
-4 36 -12 43 -39 31z"/>
<path d="M1856 667 c-24 -18 -28 -43 -10 -58 23 -19 46 9 36 44 -7 25 -9 26
-26 14z"/>
<path d="M1812 561 c-9 -5 -12 -25 -10 -57 3 -43 6 -49 26 -52 20 -3 23 0 17
18 -4 12 -1 27 6 36 9 11 9 21 1 39 -12 27 -19 30 -40 16z"/>
<path d="M1817 313 c-9 -8 -9 -103 -1 -103 13 0 54 52 54 69 0 30 -35 53 -53
34z"/>
<path d="M1882 180 c-29 -37 -22 -80 14 -80 22 0 24 4 24 55 0 30 -3 55 -7 54
-5 0 -18 -13 -31 -29z"/>
<path d="M2731 61 c-9 -6 -11 -18 -7 -35 5 -22 12 -26 42 -26 l36 0 -19 32
c-20 35 -32 42 -52 29z"/>
<path d="M2607 33 c-17 -16 -5 -33 23 -33 32 0 37 9 18 28 -13 13 -31 16 -41
5z"/>
<path d="M2385 10 c-3 -5 3 -10 14 -10 12 0 21 5 21 10 0 6 -6 10 -14 10 -8 0
-18 -4 -21 -10z"/>
<path d="M5905 10 c-4 -6 5 -10 20 -10 15 0 24 4 20 10 -3 5 -12 10 -20 10 -8
0 -17 -4 -20 -10z"/>
</g>
</svg>
